<?xml version="1.0" encoding="UTF-8" standalone="no"?>
<!DOCTYPE svg PUBLIC "-//W3C//DTD SVG 1.1//EN"
 "http://www.w3.org/Graphics/SVG/1.1/DTD/svg11.dtd">
<!-- Generated by graphviz version 2.38.0 (20140413.2041)
 -->
<!-- Title: alarm.h Pages: 1 -->
<svg width="266pt" height="140pt"
 viewBox="0.00 0.00 266.00 140.00" xmlns="http://www.w3.org/2000/svg" xmlns:xlink="http://www.w3.org/1999/xlink">
<g id="graph0" class="graph" transform="scale(1 1) rotate(0) translate(4 136)">
<title>alarm.h</title>
<polygon fill="white" stroke="none" points="-4,4 -4,-136 262,-136 262,4 -4,4"/>
<!-- Node1 -->
<g id="node1" class="node"><title>Node1</title>
<polygon fill="#bfbfbf" stroke="black" points="143.5,-112.5 143.5,-131.5 192.5,-131.5 192.5,-112.5 143.5,-112.5"/>
<text text-anchor="middle" x="168" y="-119.5" font-family="Helvetica,sans-Serif" font-size="10.00">alarm.h</text>
</g>
<!-- Node2 -->
<g id="node2" class="node"><title>Node2</title>
<g id="a_node2"><a xlink:href="networking_8h.html" target="_top" xlink:title="This file provides an abstraction layer for the network connection to the morgenlichtd server...">
<polygon fill="white" stroke="black" points="50,-56.5 50,-75.5 122,-75.5 122,-56.5 50,-56.5"/>
<text text-anchor="middle" x="86" y="-63.5" font-family="Helvetica,sans-Serif" font-size="10.00">networking.h</text>
</a>
</g>
</g>
<!-- Node1&#45;&gt;Node2 -->
<g id="edge1" class="edge"><title>Node1&#45;&gt;Node2</title>
<path fill="none" stroke="midnightblue" d="M154.825,-112.324C142.153,-103.979 122.767,-91.2122 107.794,-81.3524"/>
<polygon fill="midnightblue" stroke="midnightblue" points="109.419,-78.2313 99.142,-75.6545 105.569,-84.0776 109.419,-78.2313"/>
</g>
<!-- Node5 -->
<g id="node5" class="node"><title>Node5</title>
<polygon fill="white" stroke="#bfbfbf" points="140,-56.5 140,-75.5 196,-75.5 196,-56.5 140,-56.5"/>
<text text-anchor="middle" x="168" y="-63.5" font-family="Helvetica,sans-Serif" font-size="10.00">stdbool.h</text>
</g>
<!-- Node1&#45;&gt;Node5 -->
<g id="edge4" class="edge"><title>Node1&#45;&gt;Node5</title>
<path fill="none" stroke="midnightblue" d="M168,-112.083C168,-105.006 168,-94.8611 168,-85.9865"/>
<polygon fill="midnightblue" stroke="midnightblue" points="171.5,-85.751 168,-75.7511 164.5,-85.7511 171.5,-85.751"/>
</g>
<!-- Node6 -->
<g id="node6" class="node"><title>Node6</title>
<polygon fill="white" stroke="#bfbfbf" points="214,-56.5 214,-75.5 258,-75.5 258,-56.5 214,-56.5"/>
<text text-anchor="middle" x="236" y="-63.5" font-family="Helvetica,sans-Serif" font-size="10.00">time.h</text>
</g>
<!-- Node1&#45;&gt;Node6 -->
<g id="edge5" class="edge"><title>Node1&#45;&gt;Node6</title>
<path fill="none" stroke="midnightblue" d="M178.925,-112.324C189.175,-104.185 204.721,-91.8395 217.001,-82.0874"/>
<polygon fill="midnightblue" stroke="midnightblue" points="219.221,-84.7937 224.876,-75.8339 214.868,-79.3119 219.221,-84.7937"/>
</g>
<!-- Node3 -->
<g id="node3" class="node"><title>Node3</title>
<polygon fill="white" stroke="#bfbfbf" points="0,-0.5 0,-19.5 72,-19.5 72,-0.5 0,-0.5"/>
<text text-anchor="middle" x="36" y="-7.5" font-family="Helvetica,sans-Serif" font-size="10.00">SDL2/SDL.h</text>
</g>
<!-- Node2&#45;&gt;Node3 -->
<g id="edge2" class="edge"><title>Node2&#45;&gt;Node3</title>
<path fill="none" stroke="midnightblue" d="M77.7435,-56.083C70.5353,-48.2982 59.8902,-36.8015 51.1542,-27.3665"/>
<polygon fill="midnightblue" stroke="midnightblue" points="53.4651,-24.7108 44.1028,-19.7511 48.3288,-29.4666 53.4651,-24.7108"/>
</g>
<!-- Node4 -->
<g id="node4" class="node"><title>Node4</title>
<polygon fill="white" stroke="#bfbfbf" points="90.5,-0.5 90.5,-19.5 181.5,-19.5 181.5,-0.5 90.5,-0.5"/>
<text text-anchor="middle" x="136" y="-7.5" font-family="Helvetica,sans-Serif" font-size="10.00">SDL2/SDL_net.h</text>
</g>
<!-- Node2&#45;&gt;Node4 -->
<g id="edge3" class="edge"><title>Node2&#45;&gt;Node4</title>
<path fill="none" stroke="midnightblue" d="M94.2565,-56.083C101.465,-48.2982 112.11,-36.8015 120.846,-27.3665"/>
<polygon fill="midnightblue" stroke="midnightblue" points="123.671,-29.4666 127.897,-19.7511 118.535,-24.7108 123.671,-29.4666"/>
</g>
</g>
</svg>
