<?xml version="1.0" encoding="UTF-8" standalone="no"?>
<!DOCTYPE svg PUBLIC "-//W3C//DTD SVG 1.1//EN"
 "http://www.w3.org/Graphics/SVG/1.1/DTD/svg11.dtd">
<!-- Generated by graphviz version 2.38.0 (20140413.2041)
 -->
<!-- Title: morgenlichtctl.c Pages: 1 -->
<svg width="584pt" height="140pt"
 viewBox="0.00 0.00 583.50 140.00" xmlns="http://www.w3.org/2000/svg" xmlns:xlink="http://www.w3.org/1999/xlink">
<g id="graph0" class="graph" transform="scale(1 1) rotate(0) translate(4 136)">
<title>morgenlichtctl.c</title>
<polygon fill="white" stroke="none" points="-4,4 -4,-136 579.5,-136 579.5,4 -4,4"/>
<!-- Node1 -->
<g id="node1" class="node"><title>Node1</title>
<polygon fill="#bfbfbf" stroke="black" points="340.5,-112.5 340.5,-131.5 426.5,-131.5 426.5,-112.5 340.5,-112.5"/>
<text text-anchor="middle" x="383.5" y="-119.5" font-family="Helvetica,sans-Serif" font-size="10.00">morgenlichtctl.c</text>
</g>
<!-- Node2 -->
<g id="node2" class="node"><title>Node2</title>
<g id="a_node2"><a xlink:href="cli_8h.html" target="_top" xlink:title="This file describes the command&#45;line parameters for morgenlichtctl. ">
<polygon fill="white" stroke="black" points="138,-56.5 138,-75.5 173,-75.5 173,-56.5 138,-56.5"/>
<text text-anchor="middle" x="155.5" y="-63.5" font-family="Helvetica,sans-Serif" font-size="10.00">cli.h</text>
</a>
</g>
</g>
<!-- Node1&#45;&gt;Node2 -->
<g id="edge1" class="edge"><title>Node1&#45;&gt;Node2</title>
<path fill="none" stroke="midnightblue" d="M347.373,-112.444C301.746,-101.637 224.239,-83.2804 183.085,-73.5333"/>
<polygon fill="midnightblue" stroke="midnightblue" points="183.747,-70.0932 173.209,-71.1943 182.133,-76.9048 183.747,-70.0932"/>
</g>
<!-- Node6 -->
<g id="node6" class="node"><title>Node6</title>
<g id="a_node6"><a xlink:href="networking_8h.html" target="_top" xlink:title="This file provides an abstraction layer for the network connection to the morgenlichtd server...">
<polygon fill="white" stroke="black" points="237.5,-56.5 237.5,-75.5 309.5,-75.5 309.5,-56.5 237.5,-56.5"/>
<text text-anchor="middle" x="273.5" y="-63.5" font-family="Helvetica,sans-Serif" font-size="10.00">networking.h</text>
</a>
</g>
</g>
<!-- Node1&#45;&gt;Node6 -->
<g id="edge5" class="edge"><title>Node1&#45;&gt;Node6</title>
<path fill="none" stroke="midnightblue" d="M365.827,-112.324C348.106,-103.625 320.597,-90.1202 300.212,-80.113"/>
<polygon fill="midnightblue" stroke="midnightblue" points="301.649,-76.9195 291.13,-75.6545 298.564,-83.2031 301.649,-76.9195"/>
</g>
<!-- Node9 -->
<g id="node9" class="node"><title>Node9</title>
<polygon fill="white" stroke="#bfbfbf" points="327.5,-56.5 327.5,-75.5 375.5,-75.5 375.5,-56.5 327.5,-56.5"/>
<text text-anchor="middle" x="351.5" y="-63.5" font-family="Helvetica,sans-Serif" font-size="10.00">stdlib.h</text>
</g>
<!-- Node1&#45;&gt;Node9 -->
<g id="edge8" class="edge"><title>Node1&#45;&gt;Node9</title>
<path fill="none" stroke="midnightblue" d="M378.216,-112.083C373.789,-104.613 367.337,-93.7244 361.882,-84.5199"/>
<polygon fill="midnightblue" stroke="midnightblue" points="364.795,-82.5697 356.686,-75.7511 358.773,-86.1383 364.795,-82.5697"/>
</g>
<!-- Node10 -->
<g id="node10" class="node"><title>Node10</title>
<polygon fill="white" stroke="#bfbfbf" points="393.5,-56.5 393.5,-75.5 439.5,-75.5 439.5,-56.5 393.5,-56.5"/>
<text text-anchor="middle" x="416.5" y="-63.5" font-family="Helvetica,sans-Serif" font-size="10.00">stdio.h</text>
</g>
<!-- Node1&#45;&gt;Node10 -->
<g id="edge9" class="edge"><title>Node1&#45;&gt;Node10</title>
<path fill="none" stroke="midnightblue" d="M388.949,-112.083C393.514,-104.613 400.168,-93.7244 405.793,-84.5199"/>
<polygon fill="midnightblue" stroke="midnightblue" points="408.924,-86.109 411.152,-75.7511 402.951,-82.4588 408.924,-86.109"/>
</g>
<!-- Node11 -->
<g id="node11" class="node"><title>Node11</title>
<polygon fill="white" stroke="#bfbfbf" points="457.5,-56.5 457.5,-75.5 509.5,-75.5 509.5,-56.5 457.5,-56.5"/>
<text text-anchor="middle" x="483.5" y="-63.5" font-family="Helvetica,sans-Serif" font-size="10.00">stdarg.h</text>
</g>
<!-- Node1&#45;&gt;Node11 -->
<g id="edge10" class="edge"><title>Node1&#45;&gt;Node11</title>
<path fill="none" stroke="midnightblue" d="M399.567,-112.324C415.458,-103.743 440.007,-90.486 458.458,-80.5224"/>
<polygon fill="midnightblue" stroke="midnightblue" points="460.337,-83.4857 467.473,-75.6545 457.011,-77.3264 460.337,-83.4857"/>
</g>
<!-- Node12 -->
<g id="node12" class="node"><title>Node12</title>
<polygon fill="white" stroke="#bfbfbf" points="527.5,-56.5 527.5,-75.5 575.5,-75.5 575.5,-56.5 527.5,-56.5"/>
<text text-anchor="middle" x="551.5" y="-63.5" font-family="Helvetica,sans-Serif" font-size="10.00">limits.h</text>
</g>
<!-- Node1&#45;&gt;Node12 -->
<g id="edge11" class="edge"><title>Node1&#45;&gt;Node12</title>
<path fill="none" stroke="midnightblue" d="M410.12,-112.444C439.257,-103.078 486.038,-88.0415 517.734,-77.8532"/>
<polygon fill="midnightblue" stroke="midnightblue" points="519.005,-81.1213 527.454,-74.729 516.863,-74.4571 519.005,-81.1213"/>
</g>
<!-- Node3 -->
<g id="node3" class="node"><title>Node3</title>
<polygon fill="white" stroke="#bfbfbf" points="0,-0.5 0,-19.5 65,-19.5 65,-0.5 0,-0.5"/>
<text text-anchor="middle" x="32.5" y="-7.5" font-family="Helvetica,sans-Serif" font-size="10.00">argtable2.h</text>
</g>
<!-- Node2&#45;&gt;Node3 -->
<g id="edge2" class="edge"><title>Node2&#45;&gt;Node3</title>
<path fill="none" stroke="midnightblue" d="M137.877,-57.2631C117.91,-48.4971 85.0678,-34.0785 61.3499,-23.6658"/>
<polygon fill="midnightblue" stroke="midnightblue" points="62.687,-20.4304 52.1236,-19.6152 59.8731,-26.84 62.687,-20.4304"/>
</g>
<!-- Node4 -->
<g id="node4" class="node"><title>Node4</title>
<polygon fill="white" stroke="#bfbfbf" points="83.5,-0.5 83.5,-19.5 151.5,-19.5 151.5,-0.5 83.5,-0.5"/>
<text text-anchor="middle" x="117.5" y="-7.5" font-family="Helvetica,sans-Serif" font-size="10.00">sys/types.h</text>
</g>
<!-- Node2&#45;&gt;Node4 -->
<g id="edge3" class="edge"><title>Node2&#45;&gt;Node4</title>
<path fill="none" stroke="midnightblue" d="M149.225,-56.083C143.858,-48.4554 135.982,-37.2645 129.421,-27.9408"/>
<polygon fill="midnightblue" stroke="midnightblue" points="132.275,-25.9149 123.658,-19.7511 126.551,-29.9434 132.275,-25.9149"/>
</g>
<!-- Node5 -->
<g id="node5" class="node"><title>Node5</title>
<polygon fill="white" stroke="#bfbfbf" points="170,-0.5 170,-19.5 219,-19.5 219,-0.5 170,-0.5"/>
<text text-anchor="middle" x="194.5" y="-7.5" font-family="Helvetica,sans-Serif" font-size="10.00">regex.h</text>
</g>
<!-- Node2&#45;&gt;Node5 -->
<g id="edge4" class="edge"><title>Node2&#45;&gt;Node5</title>
<path fill="none" stroke="midnightblue" d="M161.94,-56.083C167.449,-48.4554 175.531,-37.2645 182.265,-27.9408"/>
<polygon fill="midnightblue" stroke="midnightblue" points="185.162,-29.9071 188.18,-19.7511 179.487,-25.8087 185.162,-29.9071"/>
</g>
<!-- Node7 -->
<g id="node7" class="node"><title>Node7</title>
<polygon fill="white" stroke="#bfbfbf" points="237.5,-0.5 237.5,-19.5 309.5,-19.5 309.5,-0.5 237.5,-0.5"/>
<text text-anchor="middle" x="273.5" y="-7.5" font-family="Helvetica,sans-Serif" font-size="10.00">SDL2/SDL.h</text>
</g>
<!-- Node6&#45;&gt;Node7 -->
<g id="edge6" class="edge"><title>Node6&#45;&gt;Node7</title>
<path fill="none" stroke="midnightblue" d="M273.5,-56.083C273.5,-49.0059 273.5,-38.8611 273.5,-29.9865"/>
<polygon fill="midnightblue" stroke="midnightblue" points="277,-29.751 273.5,-19.7511 270,-29.7511 277,-29.751"/>
</g>
<!-- Node8 -->
<g id="node8" class="node"><title>Node8</title>
<polygon fill="white" stroke="#bfbfbf" points="328,-0.5 328,-19.5 419,-19.5 419,-0.5 328,-0.5"/>
<text text-anchor="middle" x="373.5" y="-7.5" font-family="Helvetica,sans-Serif" font-size="10.00">SDL2/SDL_net.h</text>
</g>
<!-- Node6&#45;&gt;Node8 -->
<g id="edge7" class="edge"><title>Node6&#45;&gt;Node8</title>
<path fill="none" stroke="midnightblue" d="M289.567,-56.324C305.458,-47.7428 330.007,-34.486 348.458,-24.5224"/>
<polygon fill="midnightblue" stroke="midnightblue" points="350.337,-27.4857 357.473,-19.6545 347.011,-21.3264 350.337,-27.4857"/>
</g>
</g>
</svg>
