<?xml version="1.0" encoding="UTF-8" standalone="no"?>
<!DOCTYPE svg PUBLIC "-//W3C//DTD SVG 1.1//EN"
 "http://www.w3.org/Graphics/SVG/1.1/DTD/svg11.dtd">
<!-- Generated by graphviz version 2.38.0 (20140413.2041)
 -->
<!-- Title: alarm.h Pages: 1 -->
<svg width="241pt" height="140pt"
 viewBox="0.00 0.00 240.50 140.00" xmlns="http://www.w3.org/2000/svg" xmlns:xlink="http://www.w3.org/1999/xlink">
<g id="graph0" class="graph" transform="scale(1 1) rotate(0) translate(4 136)">
<title>alarm.h</title>
<polygon fill="white" stroke="none" points="-4,4 -4,-136 236.5,-136 236.5,4 -4,4"/>
<!-- Node0 -->
<g id="node1" class="node"><title>Node0</title>
<polygon fill="#bfbfbf" stroke="black" points="108.5,-112.5 108.5,-131.5 162.5,-131.5 162.5,-112.5 108.5,-112.5"/>
<text text-anchor="middle" x="135.5" y="-119.5" font-family="Helvetica,sans-Serif" font-size="10.00">alarm.h</text>
</g>
<!-- Node1 -->
<g id="node2" class="node"><title>Node1</title>
<g id="a_node2"><a xlink:href="networking_8h.html" target="_top" xlink:title="This file provides an abstraction layer for the network connection to the morgenlichtd server...">
<polygon fill="white" stroke="black" points="6.5,-56.5 6.5,-75.5 86.5,-75.5 86.5,-56.5 6.5,-56.5"/>
<text text-anchor="middle" x="46.5" y="-63.5" font-family="Helvetica,sans-Serif" font-size="10.00">networking.h</text>
</a>
</g>
</g>
<!-- Node0&#45;&gt;Node1 -->
<g id="edge1" class="edge"><title>Node0&#45;&gt;Node1</title>
<path fill="none" stroke="midnightblue" d="M121.201,-112.324C107.317,-103.9 86.0076,-90.9709 69.6963,-81.0741"/>
<polygon fill="midnightblue" stroke="midnightblue" points="71.1289,-77.8495 60.7639,-75.6545 67.4978,-83.8341 71.1289,-77.8495"/>
</g>
<!-- Node3 -->
<g id="node4" class="node"><title>Node3</title>
<polygon fill="white" stroke="#bfbfbf" points="104.5,-56.5 104.5,-75.5 166.5,-75.5 166.5,-56.5 104.5,-56.5"/>
<text text-anchor="middle" x="135.5" y="-63.5" font-family="Helvetica,sans-Serif" font-size="10.00">stdbool.h</text>
</g>
<!-- Node0&#45;&gt;Node3 -->
<g id="edge3" class="edge"><title>Node0&#45;&gt;Node3</title>
<path fill="none" stroke="midnightblue" d="M135.5,-112.083C135.5,-105.006 135.5,-94.8611 135.5,-85.9865"/>
<polygon fill="midnightblue" stroke="midnightblue" points="139,-85.751 135.5,-75.7511 132,-85.7511 139,-85.751"/>
</g>
<!-- Node4 -->
<g id="node5" class="node"><title>Node4</title>
<polygon fill="white" stroke="#bfbfbf" points="184.5,-56.5 184.5,-75.5 232.5,-75.5 232.5,-56.5 184.5,-56.5"/>
<text text-anchor="middle" x="208.5" y="-63.5" font-family="Helvetica,sans-Serif" font-size="10.00">time.h</text>
</g>
<!-- Node0&#45;&gt;Node4 -->
<g id="edge4" class="edge"><title>Node0&#45;&gt;Node4</title>
<path fill="none" stroke="midnightblue" d="M147.229,-112.324C158.337,-104.107 175.242,-91.6017 188.483,-81.8069"/>
<polygon fill="midnightblue" stroke="midnightblue" points="190.6,-84.5948 196.558,-75.8339 186.437,-78.9671 190.6,-84.5948"/>
</g>
<!-- Node2 -->
<g id="node3" class="node"><title>Node2</title>
<polygon fill="white" stroke="#bfbfbf" points="-7.10543e-15,-0.5 -7.10543e-15,-19.5 93,-19.5 93,-0.5 -7.10543e-15,-0.5"/>
<text text-anchor="middle" x="46.5" y="-7.5" font-family="Helvetica,sans-Serif" font-size="10.00">SDL2/SDL_net.h</text>
</g>
<!-- Node1&#45;&gt;Node2 -->
<g id="edge2" class="edge"><title>Node1&#45;&gt;Node2</title>
<path fill="none" stroke="midnightblue" d="M46.5,-56.083C46.5,-49.0059 46.5,-38.8611 46.5,-29.9865"/>
<polygon fill="midnightblue" stroke="midnightblue" points="50.0001,-29.751 46.5,-19.7511 43.0001,-29.7511 50.0001,-29.751"/>
</g>
</g>
</svg>
