<?xml version="1.0" encoding="UTF-8" standalone="no"?>
<!DOCTYPE svg PUBLIC "-//W3C//DTD SVG 1.1//EN"
 "http://www.w3.org/Graphics/SVG/1.1/DTD/svg11.dtd">
<!-- Generated by graphviz version 2.38.0 (20140413.2041)
 -->
<!-- Title: alarm.h Pages: 1 -->
<svg width="629pt" height="140pt"
 viewBox="0.00 0.00 628.50 140.00" xmlns="http://www.w3.org/2000/svg" xmlns:xlink="http://www.w3.org/1999/xlink">
<g id="graph0" class="graph" transform="scale(1 1) rotate(0) translate(4 136)">
<title>alarm.h</title>
<polygon fill="white" stroke="none" points="-4,4 -4,-136 624.5,-136 624.5,4 -4,4"/>
<!-- Node0 -->
<g id="node1" class="node"><title>Node0</title>
<polygon fill="#bfbfbf" stroke="black" points="349,-112.5 349,-131.5 403,-131.5 403,-112.5 349,-112.5"/>
<text text-anchor="middle" x="376" y="-119.5" font-family="Helvetica,sans-Serif" font-size="10.00">alarm.h</text>
</g>
<!-- Node1 -->
<g id="node2" class="node"><title>Node1</title>
<g id="a_node2"><a xlink:href="networking_8h.html" target="_top" xlink:title="This file provides an abstraction layer for the network connection to the morgenlichtd server...">
<polygon fill="white" stroke="black" points="247,-56.5 247,-75.5 327,-75.5 327,-56.5 247,-56.5"/>
<text text-anchor="middle" x="287" y="-63.5" font-family="Helvetica,sans-Serif" font-size="10.00">networking.h</text>
</a>
</g>
</g>
<!-- Node0&#45;&gt;Node1 -->
<g id="edge1" class="edge"><title>Node0&#45;&gt;Node1</title>
<path fill="none" stroke="midnightblue" d="M361.701,-112.324C347.817,-103.9 326.508,-90.9709 310.196,-81.0741"/>
<polygon fill="midnightblue" stroke="midnightblue" points="311.629,-77.8495 301.264,-75.6545 307.998,-83.8341 311.629,-77.8495"/>
</g>
<!-- Node10 -->
<g id="node11" class="node"><title>Node10</title>
<polygon fill="white" stroke="#bfbfbf" points="345,-56.5 345,-75.5 407,-75.5 407,-56.5 345,-56.5"/>
<text text-anchor="middle" x="376" y="-63.5" font-family="Helvetica,sans-Serif" font-size="10.00">stdbool.h</text>
</g>
<!-- Node0&#45;&gt;Node10 -->
<g id="edge10" class="edge"><title>Node0&#45;&gt;Node10</title>
<path fill="none" stroke="midnightblue" d="M376,-112.083C376,-105.006 376,-94.8611 376,-85.9865"/>
<polygon fill="midnightblue" stroke="midnightblue" points="379.5,-85.751 376,-75.7511 372.5,-85.7511 379.5,-85.751"/>
</g>
<!-- Node11 -->
<g id="node12" class="node"><title>Node11</title>
<polygon fill="white" stroke="#bfbfbf" points="425,-56.5 425,-75.5 473,-75.5 473,-56.5 425,-56.5"/>
<text text-anchor="middle" x="449" y="-63.5" font-family="Helvetica,sans-Serif" font-size="10.00">time.h</text>
</g>
<!-- Node0&#45;&gt;Node11 -->
<g id="edge11" class="edge"><title>Node0&#45;&gt;Node11</title>
<path fill="none" stroke="midnightblue" d="M387.729,-112.324C398.837,-104.107 415.742,-91.6017 428.983,-81.8069"/>
<polygon fill="midnightblue" stroke="midnightblue" points="431.1,-84.5948 437.058,-75.8339 426.937,-78.9671 431.1,-84.5948"/>
</g>
<!-- Node2 -->
<g id="node3" class="node"><title>Node2</title>
<polygon fill="white" stroke="#bfbfbf" points="0,-0.5 0,-19.5 56,-19.5 56,-0.5 0,-0.5"/>
<text text-anchor="middle" x="28" y="-7.5" font-family="Helvetica,sans-Serif" font-size="10.00">unistd.h</text>
</g>
<!-- Node1&#45;&gt;Node2 -->
<g id="edge2" class="edge"><title>Node1&#45;&gt;Node2</title>
<path fill="none" stroke="midnightblue" d="M246.796,-57.3352C204.337,-49.1329 135.198,-35.4728 66.4003,-20.2489"/>
<polygon fill="midnightblue" stroke="midnightblue" points="66.777,-16.7472 56.2555,-17.9919 65.2567,-23.5801 66.777,-16.7472"/>
</g>
<!-- Node3 -->
<g id="node4" class="node"><title>Node3</title>
<polygon fill="white" stroke="#bfbfbf" points="74.5,-0.5 74.5,-19.5 127.5,-19.5 127.5,-0.5 74.5,-0.5"/>
<text text-anchor="middle" x="101" y="-7.5" font-family="Helvetica,sans-Serif" font-size="10.00">string.h</text>
</g>
<!-- Node1&#45;&gt;Node3 -->
<g id="edge3" class="edge"><title>Node1&#45;&gt;Node3</title>
<path fill="none" stroke="midnightblue" d="M257.528,-56.4435C224.99,-46.997 172.578,-31.7807 137.476,-21.5897"/>
<polygon fill="midnightblue" stroke="midnightblue" points="138.202,-18.156 127.622,-18.729 136.25,-24.8784 138.202,-18.156"/>
</g>
<!-- Node4 -->
<g id="node5" class="node"><title>Node4</title>
<polygon fill="white" stroke="#bfbfbf" points="145.5,-0.5 145.5,-19.5 204.5,-19.5 204.5,-0.5 145.5,-0.5"/>
<text text-anchor="middle" x="175" y="-7.5" font-family="Helvetica,sans-Serif" font-size="10.00">strings.h</text>
</g>
<!-- Node1&#45;&gt;Node4 -->
<g id="edge4" class="edge"><title>Node1&#45;&gt;Node4</title>
<path fill="none" stroke="midnightblue" d="M269.005,-56.324C250.962,-47.6247 222.953,-34.1202 202.197,-24.113"/>
<polygon fill="midnightblue" stroke="midnightblue" points="203.478,-20.8449 192.95,-19.6545 200.438,-27.1502 203.478,-20.8449"/>
</g>
<!-- Node5 -->
<g id="node6" class="node"><title>Node5</title>
<polygon fill="white" stroke="#bfbfbf" points="223,-0.5 223,-19.5 273,-19.5 273,-0.5 223,-0.5"/>
<text text-anchor="middle" x="248" y="-7.5" font-family="Helvetica,sans-Serif" font-size="10.00">stdio.h</text>
</g>
<!-- Node1&#45;&gt;Node5 -->
<g id="edge5" class="edge"><title>Node1&#45;&gt;Node5</title>
<path fill="none" stroke="midnightblue" d="M280.56,-56.083C275.051,-48.4554 266.969,-37.2645 260.235,-27.9408"/>
<polygon fill="midnightblue" stroke="midnightblue" points="263.013,-25.8087 254.32,-19.7511 257.338,-29.9071 263.013,-25.8087"/>
</g>
<!-- Node6 -->
<g id="node7" class="node"><title>Node6</title>
<polygon fill="white" stroke="#bfbfbf" points="291,-0.5 291,-19.5 363,-19.5 363,-0.5 291,-0.5"/>
<text text-anchor="middle" x="327" y="-7.5" font-family="Helvetica,sans-Serif" font-size="10.00">sys/types.h</text>
</g>
<!-- Node1&#45;&gt;Node6 -->
<g id="edge6" class="edge"><title>Node1&#45;&gt;Node6</title>
<path fill="none" stroke="midnightblue" d="M293.605,-56.083C299.255,-48.4554 307.545,-37.2645 314.451,-27.9408"/>
<polygon fill="midnightblue" stroke="midnightblue" points="317.378,-29.87 320.518,-19.7511 311.753,-25.7034 317.378,-29.87"/>
</g>
<!-- Node7 -->
<g id="node8" class="node"><title>Node7</title>
<polygon fill="white" stroke="#bfbfbf" points="381.5,-0.5 381.5,-19.5 458.5,-19.5 458.5,-0.5 381.5,-0.5"/>
<text text-anchor="middle" x="420" y="-7.5" font-family="Helvetica,sans-Serif" font-size="10.00">sys/socket.h</text>
</g>
<!-- Node1&#45;&gt;Node7 -->
<g id="edge7" class="edge"><title>Node1&#45;&gt;Node7</title>
<path fill="none" stroke="midnightblue" d="M308.074,-56.4435C330.06,-47.5171 364.734,-33.4387 389.664,-23.3168"/>
<polygon fill="midnightblue" stroke="midnightblue" points="391.076,-26.5213 399.024,-19.5164 388.442,-20.0355 391.076,-26.5213"/>
</g>
<!-- Node8 -->
<g id="node9" class="node"><title>Node8</title>
<polygon fill="white" stroke="#bfbfbf" points="477,-0.5 477,-19.5 549,-19.5 549,-0.5 477,-0.5"/>
<text text-anchor="middle" x="513" y="-7.5" font-family="Helvetica,sans-Serif" font-size="10.00">netinet/in.h</text>
</g>
<!-- Node1&#45;&gt;Node8 -->
<g id="edge8" class="edge"><title>Node1&#45;&gt;Node8</title>
<path fill="none" stroke="midnightblue" d="M322.81,-56.4435C361.988,-47.0826 424.877,-32.0561 467.515,-21.868"/>
<polygon fill="midnightblue" stroke="midnightblue" points="468.444,-25.2446 477.357,-19.5164 466.818,-18.4363 468.444,-25.2446"/>
</g>
<!-- Node9 -->
<g id="node10" class="node"><title>Node9</title>
<polygon fill="white" stroke="#bfbfbf" points="567.5,-0.5 567.5,-19.5 620.5,-19.5 620.5,-0.5 567.5,-0.5"/>
<text text-anchor="middle" x="594" y="-7.5" font-family="Helvetica,sans-Serif" font-size="10.00">netdb.h</text>
</g>
<!-- Node1&#45;&gt;Node9 -->
<g id="edge9" class="edge"><title>Node1&#45;&gt;Node9</title>
<path fill="none" stroke="midnightblue" d="M327.099,-57.5644C330.11,-57.0277 333.102,-56.501 336,-56 431.416,-39.5027 458.423,-40.084 557.503,-19.9499"/>
<polygon fill="midnightblue" stroke="midnightblue" points="558.228,-23.374 567.321,-17.9355 556.822,-16.5169 558.228,-23.374"/>
</g>
</g>
</svg>
