<?xml version="1.0" encoding="UTF-8" standalone="no"?>
<!DOCTYPE svg PUBLIC "-//W3C//DTD SVG 1.1//EN"
 "http://www.w3.org/Graphics/SVG/1.1/DTD/svg11.dtd">
<!-- Generated by graphviz version 2.38.0 (20140413.2041)
 -->
<!-- Title: Graph Legend Pages: 1 -->
<svg width="544pt" height="159pt"
 viewBox="0.00 0.00 543.50 159.00" xmlns="http://www.w3.org/2000/svg" xmlns:xlink="http://www.w3.org/1999/xlink">
<g id="graph0" class="graph" transform="scale(1 1) rotate(0) translate(4 155)">
<title>Graph Legend</title>
<polygon fill="white" stroke="none" points="-4,4 -4,-155 539.5,-155 539.5,4 -4,4"/>
<!-- Node9 -->
<g id="node1" class="node"><title>Node9</title>
<polygon fill="#bfbfbf" stroke="black" points="311,-19 251,-19 251,-0 311,-0 311,-19"/>
<text text-anchor="middle" x="281" y="-7" font-family="Helvetica,sans-Serif" font-size="10.00">Inherited</text>
</g>
<!-- Node10 -->
<g id="node2" class="node"><title>Node10</title>
<g id="a_node2"><a xlink:href="$classPublicBase.html" xlink:title="PublicBase">
<polygon fill="none" stroke="black" points="70,-85 0,-85 0,-66 70,-66 70,-85"/>
<text text-anchor="middle" x="35" y="-73" font-family="Helvetica,sans-Serif" font-size="10.00">PublicBase</text>
</a>
</g>
</g>
<!-- Node10&#45;&gt;Node9 -->
<g id="edge1" class="edge"><title>Node10&#45;&gt;Node9</title>
<path fill="none" stroke="midnightblue" d="M77.6958,-63.3921C127.222,-50.5074 207.604,-29.595 250.972,-18.3123"/>
<polygon fill="midnightblue" stroke="midnightblue" points="76.718,-60.03 67.9214,-65.9351 78.4805,-66.8044 76.718,-60.03"/>
</g>
<!-- Node11 -->
<g id="node3" class="node"><title>Node11</title>
<g id="a_node3"><a xlink:href="$classTruncated.html" xlink:title="Truncated">
<polygon fill="none" stroke="red" points="67,-151 3,-151 3,-132 67,-132 67,-151"/>
<text text-anchor="middle" x="35" y="-139" font-family="Helvetica,sans-Serif" font-size="10.00">Truncated</text>
</a>
</g>
</g>
<!-- Node11&#45;&gt;Node10 -->
<g id="edge2" class="edge"><title>Node11&#45;&gt;Node10</title>
<path fill="none" stroke="midnightblue" d="M35,-121.584C35,-109.625 35,-94.7211 35,-85.4052"/>
<polygon fill="midnightblue" stroke="midnightblue" points="31.5001,-121.869 35,-131.869 38.5001,-121.869 31.5001,-121.869"/>
</g>
<!-- Node13 -->
<g id="node4" class="node"><title>Node13</title>
<g id="a_node4"><a xlink:href="$classProtectedBase.html" xlink:title="ProtectedBase">
<polygon fill="none" stroke="black" points="175.5,-85 88.5,-85 88.5,-66 175.5,-66 175.5,-85"/>
<text text-anchor="middle" x="132" y="-73" font-family="Helvetica,sans-Serif" font-size="10.00">ProtectedBase</text>
</a>
</g>
</g>
<!-- Node13&#45;&gt;Node9 -->
<g id="edge3" class="edge"><title>Node13&#45;&gt;Node9</title>
<path fill="none" stroke="darkgreen" d="M161.43,-61.8588C190.793,-49.2465 235.121,-30.2063 260.748,-19.199"/>
<polygon fill="darkgreen" stroke="darkgreen" points="159.902,-58.7061 152.095,-65.8687 162.664,-65.1379 159.902,-58.7061"/>
</g>
<!-- Node14 -->
<g id="node5" class="node"><title>Node14</title>
<g id="a_node5"><a xlink:href="$classPrivateBase.html" xlink:title="PrivateBase">
<polygon fill="none" stroke="black" points="268.5,-85 193.5,-85 193.5,-66 268.5,-66 268.5,-85"/>
<text text-anchor="middle" x="231" y="-73" font-family="Helvetica,sans-Serif" font-size="10.00">PrivateBase</text>
</a>
</g>
</g>
<!-- Node14&#45;&gt;Node9 -->
<g id="edge4" class="edge"><title>Node14&#45;&gt;Node9</title>
<path fill="none" stroke="#8b1a1a" d="M244.072,-57.7673C253.664,-45.4902 266.315,-29.2973 274.043,-19.4052"/>
<polygon fill="#8b1a1a" stroke="#8b1a1a" points="241.142,-55.8336 237.743,-65.8687 246.658,-60.1432 241.142,-55.8336"/>
</g>
<!-- Node15 -->
<g id="node6" class="node"><title>Node15</title>
<polygon fill="none" stroke="#bfbfbf" points="377.5,-85 286.5,-85 286.5,-66 377.5,-66 377.5,-85"/>
<text text-anchor="middle" x="332" y="-73" font-family="Helvetica,sans-Serif" font-size="10.00">Undocumented</text>
</g>
<!-- Node15&#45;&gt;Node9 -->
<g id="edge5" class="edge"><title>Node15&#45;&gt;Node9</title>
<path fill="none" stroke="midnightblue" d="M318.666,-57.7673C308.883,-45.4902 295.979,-29.2973 288.096,-19.4052"/>
<polygon fill="midnightblue" stroke="midnightblue" points="316.153,-60.2293 325.122,-65.8687 321.627,-55.8668 316.153,-60.2293"/>
</g>
<!-- Node16 -->
<g id="node7" class="node"><title>Node16</title>
<g id="a_node7"><a xlink:href="$classTempl.html" xlink:title="Templ&lt; int &gt;">
<polygon fill="none" stroke="black" points="476.5,-85 395.5,-85 395.5,-66 476.5,-66 476.5,-85"/>
<text text-anchor="middle" x="436" y="-73" font-family="Helvetica,sans-Serif" font-size="10.00">Templ&lt; int &gt;</text>
</a>
</g>
</g>
<!-- Node16&#45;&gt;Node9 -->
<g id="edge6" class="edge"><title>Node16&#45;&gt;Node9</title>
<path fill="none" stroke="midnightblue" d="M405.782,-62.0229C375.24,-49.4122 328.842,-30.2541 302.068,-19.199"/>
<polygon fill="midnightblue" stroke="midnightblue" points="404.517,-65.2872 415.096,-65.8687 407.189,-58.817 404.517,-65.2872"/>
</g>
<!-- Node17 -->
<g id="node8" class="node"><title>Node17</title>
<g id="a_node8"><a xlink:href="$classTempl.html" xlink:title="Templ&lt; T &gt;">
<polygon fill="none" stroke="black" points="473,-151 399,-151 399,-132 473,-132 473,-151"/>
<text text-anchor="middle" x="436" y="-139" font-family="Helvetica,sans-Serif" font-size="10.00">Templ&lt; T &gt;</text>
</a>
</g>
</g>
<!-- Node17&#45;&gt;Node16 -->
<g id="edge7" class="edge"><title>Node17&#45;&gt;Node16</title>
<path fill="none" stroke="orange" stroke-dasharray="5,2" d="M436,-121.584C436,-109.625 436,-94.7211 436,-85.4052"/>
<polygon fill="orange" stroke="orange" points="432.5,-121.869 436,-131.869 439.5,-121.869 432.5,-121.869"/>
<text text-anchor="middle" x="454" y="-106" font-family="Helvetica,sans-Serif" font-size="10.00">&lt; int &gt;</text>
</g>
<!-- Node18 -->
<g id="node9" class="node"><title>Node18</title>
<g id="a_node9"><a xlink:href="$classUsed.html" xlink:title="Used">
<polygon fill="none" stroke="black" points="535.5,-85 494.5,-85 494.5,-66 535.5,-66 535.5,-85"/>
<text text-anchor="middle" x="515" y="-73" font-family="Helvetica,sans-Serif" font-size="10.00">Used</text>
</a>
</g>
</g>
<!-- Node18&#45;&gt;Node9 -->
<g id="edge8" class="edge"><title>Node18&#45;&gt;Node9</title>
<path fill="none" stroke="#9a32cd" stroke-dasharray="5,2" d="M484.353,-65.8429C416.574,-47.0485 349.054,-28.7989 311.099,-18.583"/>
<polygon fill="#9a32cd" stroke="#9a32cd" points="483.779,-69.316 494.351,-68.6189 485.652,-62.5711 483.779,-69.316"/>
<text text-anchor="middle" x="450.5" y="-40" font-family="Helvetica,sans-Serif" font-size="10.00">m_usedClass</text>
</g>
</g>
</svg>
