<?xml version="1.0" encoding="UTF-8" standalone="no"?>
<!DOCTYPE svg PUBLIC "-//W3C//DTD SVG 1.1//EN"
 "http://www.w3.org/Graphics/SVG/1.1/DTD/svg11.dtd">
<!-- Generated by graphviz version 2.38.0 (20140413.2041)
 -->
<!-- Title: morgenlichtctl.c Pages: 1 -->
<svg width="632pt" height="196pt"
 viewBox="0.00 0.00 631.50 196.00" xmlns="http://www.w3.org/2000/svg" xmlns:xlink="http://www.w3.org/1999/xlink">
<g id="graph0" class="graph" transform="scale(1 1) rotate(0) translate(4 192)">
<title>morgenlichtctl.c</title>
<polygon fill="white" stroke="none" points="-4,4 -4,-192 627.5,-192 627.5,4 -4,4"/>
<!-- Node0 -->
<g id="node1" class="node"><title>Node0</title>
<polygon fill="#bfbfbf" stroke="black" points="370.5,-168.5 370.5,-187.5 465.5,-187.5 465.5,-168.5 370.5,-168.5"/>
<text text-anchor="middle" x="418" y="-175.5" font-family="Helvetica,sans-Serif" font-size="10.00">morgenlichtctl.c</text>
</g>
<!-- Node1 -->
<g id="node2" class="node"><title>Node1</title>
<g id="a_node2"><a xlink:href="cli_8h.html" target="_top" xlink:title="This file describes the command&#45;line parameters for morgenlichtctl. ">
<polygon fill="white" stroke="black" points="147.5,-112.5 147.5,-131.5 184.5,-131.5 184.5,-112.5 147.5,-112.5"/>
<text text-anchor="middle" x="166" y="-119.5" font-family="Helvetica,sans-Serif" font-size="10.00">cli.h</text>
</a>
</g>
</g>
<!-- Node0&#45;&gt;Node1 -->
<g id="edge1" class="edge"><title>Node0&#45;&gt;Node1</title>
<path fill="none" stroke="midnightblue" d="M378.07,-168.444C326.934,-157.486 239.568,-138.764 194.601,-129.129"/>
<polygon fill="midnightblue" stroke="midnightblue" points="195.155,-125.668 184.644,-126.995 193.688,-132.513 195.155,-125.668"/>
</g>
<!-- Node5 -->
<g id="node6" class="node"><title>Node5</title>
<g id="a_node6"><a xlink:href="protocol__utils_8h.html" target="_top" xlink:title="This file provides helpers for common protocol functionality and basic queries. ">
<polygon fill="white" stroke="black" points="246,-112.5 246,-131.5 338,-131.5 338,-112.5 246,-112.5"/>
<text text-anchor="middle" x="292" y="-119.5" font-family="Helvetica,sans-Serif" font-size="10.00">protocol_utils.h</text>
</a>
</g>
</g>
<!-- Node0&#45;&gt;Node5 -->
<g id="edge5" class="edge"><title>Node0&#45;&gt;Node5</title>
<path fill="none" stroke="midnightblue" d="M398.035,-168.444C377.391,-159.596 344.937,-145.687 321.368,-135.586"/>
<polygon fill="midnightblue" stroke="midnightblue" points="322.442,-132.239 311.872,-131.516 319.684,-138.673 322.442,-132.239"/>
</g>
<!-- Node9 -->
<g id="node10" class="node"><title>Node9</title>
<polygon fill="white" stroke="#bfbfbf" points="356.5,-112.5 356.5,-131.5 409.5,-131.5 409.5,-112.5 356.5,-112.5"/>
<text text-anchor="middle" x="383" y="-119.5" font-family="Helvetica,sans-Serif" font-size="10.00">stdlib.h</text>
</g>
<!-- Node0&#45;&gt;Node9 -->
<g id="edge9" class="edge"><title>Node0&#45;&gt;Node9</title>
<path fill="none" stroke="midnightblue" d="M412.22,-168.083C407.328,-160.534 400.173,-149.495 394.167,-140.23"/>
<polygon fill="midnightblue" stroke="midnightblue" points="397.048,-138.239 388.672,-131.751 391.174,-142.046 397.048,-138.239"/>
</g>
<!-- Node10 -->
<g id="node11" class="node"><title>Node10</title>
<polygon fill="white" stroke="#bfbfbf" points="428,-112.5 428,-131.5 478,-131.5 478,-112.5 428,-112.5"/>
<text text-anchor="middle" x="453" y="-119.5" font-family="Helvetica,sans-Serif" font-size="10.00">stdio.h</text>
</g>
<!-- Node0&#45;&gt;Node10 -->
<g id="edge10" class="edge"><title>Node0&#45;&gt;Node10</title>
<path fill="none" stroke="midnightblue" d="M423.78,-168.083C428.672,-160.534 435.827,-149.495 441.833,-140.23"/>
<polygon fill="midnightblue" stroke="midnightblue" points="444.826,-142.046 447.328,-131.751 438.952,-138.239 444.826,-142.046"/>
</g>
<!-- Node11 -->
<g id="node12" class="node"><title>Node11</title>
<polygon fill="white" stroke="#bfbfbf" points="496,-112.5 496,-131.5 552,-131.5 552,-112.5 496,-112.5"/>
<text text-anchor="middle" x="524" y="-119.5" font-family="Helvetica,sans-Serif" font-size="10.00">stdarg.h</text>
</g>
<!-- Node0&#45;&gt;Node11 -->
<g id="edge11" class="edge"><title>Node0&#45;&gt;Node11</title>
<path fill="none" stroke="midnightblue" d="M435.031,-168.324C452.03,-159.664 478.376,-146.242 497.993,-136.249"/>
<polygon fill="midnightblue" stroke="midnightblue" points="499.69,-139.312 507.012,-131.655 496.512,-133.075 499.69,-139.312"/>
</g>
<!-- Node12 -->
<g id="node13" class="node"><title>Node12</title>
<polygon fill="white" stroke="#bfbfbf" points="570.5,-112.5 570.5,-131.5 623.5,-131.5 623.5,-112.5 570.5,-112.5"/>
<text text-anchor="middle" x="597" y="-119.5" font-family="Helvetica,sans-Serif" font-size="10.00">limits.h</text>
</g>
<!-- Node0&#45;&gt;Node12 -->
<g id="edge12" class="edge"><title>Node0&#45;&gt;Node12</title>
<path fill="none" stroke="midnightblue" d="M446.363,-168.444C477.185,-159.145 526.536,-144.257 560.293,-134.073"/>
<polygon fill="midnightblue" stroke="midnightblue" points="561.668,-137.315 570.231,-131.075 559.647,-130.613 561.668,-137.315"/>
</g>
<!-- Node2 -->
<g id="node3" class="node"><title>Node2</title>
<polygon fill="white" stroke="#bfbfbf" points="0,-56.5 0,-75.5 72,-75.5 72,-56.5 0,-56.5"/>
<text text-anchor="middle" x="36" y="-63.5" font-family="Helvetica,sans-Serif" font-size="10.00">argtable2.h</text>
</g>
<!-- Node1&#45;&gt;Node2 -->
<g id="edge2" class="edge"><title>Node1&#45;&gt;Node2</title>
<path fill="none" stroke="midnightblue" d="M147.374,-113.263C126.177,-104.458 91.2507,-89.9503 66.1581,-79.5272"/>
<polygon fill="midnightblue" stroke="midnightblue" points="67.318,-76.2191 56.7404,-75.6152 64.6327,-82.6836 67.318,-76.2191"/>
</g>
<!-- Node3 -->
<g id="node4" class="node"><title>Node3</title>
<polygon fill="white" stroke="#bfbfbf" points="90,-56.5 90,-75.5 162,-75.5 162,-56.5 90,-56.5"/>
<text text-anchor="middle" x="126" y="-63.5" font-family="Helvetica,sans-Serif" font-size="10.00">sys/types.h</text>
</g>
<!-- Node1&#45;&gt;Node3 -->
<g id="edge3" class="edge"><title>Node1&#45;&gt;Node3</title>
<path fill="none" stroke="midnightblue" d="M159.395,-112.083C153.745,-104.455 145.455,-93.2645 138.549,-83.9408"/>
<polygon fill="midnightblue" stroke="midnightblue" points="141.247,-81.7034 132.482,-75.7511 135.622,-85.87 141.247,-81.7034"/>
</g>
<!-- Node4 -->
<g id="node5" class="node"><title>Node4</title>
<polygon fill="white" stroke="#bfbfbf" points="180.5,-56.5 180.5,-75.5 233.5,-75.5 233.5,-56.5 180.5,-56.5"/>
<text text-anchor="middle" x="207" y="-63.5" font-family="Helvetica,sans-Serif" font-size="10.00">regex.h</text>
</g>
<!-- Node1&#45;&gt;Node4 -->
<g id="edge4" class="edge"><title>Node1&#45;&gt;Node4</title>
<path fill="none" stroke="midnightblue" d="M172.77,-112.083C178.562,-104.455 187.058,-93.2645 194.138,-83.9408"/>
<polygon fill="midnightblue" stroke="midnightblue" points="197.096,-85.8321 200.356,-75.7511 191.521,-81.5991 197.096,-85.8321"/>
</g>
<!-- Node6 -->
<g id="node7" class="node"><title>Node6</title>
<g id="a_node7"><a xlink:href="networking_8h.html" target="_top" xlink:title="This file provides an abstraction layer for the network connection to the morgenlichtd server...">
<polygon fill="white" stroke="black" points="252,-56.5 252,-75.5 332,-75.5 332,-56.5 252,-56.5"/>
<text text-anchor="middle" x="292" y="-63.5" font-family="Helvetica,sans-Serif" font-size="10.00">networking.h</text>
</a>
</g>
</g>
<!-- Node5&#45;&gt;Node6 -->
<g id="edge6" class="edge"><title>Node5&#45;&gt;Node6</title>
<path fill="none" stroke="midnightblue" d="M292,-112.083C292,-105.006 292,-94.8611 292,-85.9865"/>
<polygon fill="midnightblue" stroke="midnightblue" points="295.5,-85.751 292,-75.7511 288.5,-85.7511 295.5,-85.751"/>
</g>
<!-- Node8 -->
<g id="node9" class="node"><title>Node8</title>
<polygon fill="white" stroke="#bfbfbf" points="350.5,-56.5 350.5,-75.5 403.5,-75.5 403.5,-56.5 350.5,-56.5"/>
<text text-anchor="middle" x="377" y="-63.5" font-family="Helvetica,sans-Serif" font-size="10.00">string.h</text>
</g>
<!-- Node5&#45;&gt;Node8 -->
<g id="edge8" class="edge"><title>Node5&#45;&gt;Node8</title>
<path fill="none" stroke="midnightblue" d="M305.657,-112.324C318.916,-103.9 339.268,-90.9709 354.846,-81.0741"/>
<polygon fill="midnightblue" stroke="midnightblue" points="356.813,-83.9711 363.377,-75.6545 353.06,-78.0626 356.813,-83.9711"/>
</g>
<!-- Node7 -->
<g id="node8" class="node"><title>Node7</title>
<polygon fill="white" stroke="#bfbfbf" points="245.5,-0.5 245.5,-19.5 338.5,-19.5 338.5,-0.5 245.5,-0.5"/>
<text text-anchor="middle" x="292" y="-7.5" font-family="Helvetica,sans-Serif" font-size="10.00">SDL2/SDL_net.h</text>
</g>
<!-- Node6&#45;&gt;Node7 -->
<g id="edge7" class="edge"><title>Node6&#45;&gt;Node7</title>
<path fill="none" stroke="midnightblue" d="M292,-56.083C292,-49.0059 292,-38.8611 292,-29.9865"/>
<polygon fill="midnightblue" stroke="midnightblue" points="295.5,-29.751 292,-19.7511 288.5,-29.7511 295.5,-29.751"/>
</g>
</g>
</svg>
