<?xml version="1.0" encoding="UTF-8" standalone="no"?>
<!DOCTYPE svg PUBLIC "-//W3C//DTD SVG 1.1//EN"
 "http://www.w3.org/Graphics/SVG/1.1/DTD/svg11.dtd">
<!-- Generated by graphviz version 2.38.0 (20140413.2041)
 -->
<!-- Title: network_read_char Pages: 1 -->
<svg width="354pt" height="104pt"
 viewBox="0.00 0.00 354.00 104.00" xmlns="http://www.w3.org/2000/svg" xmlns:xlink="http://www.w3.org/1999/xlink">
<g id="graph0" class="graph" transform="scale(1 1) rotate(0) translate(4 100)">
<title>network_read_char</title>
<polygon fill="white" stroke="none" points="-4,4 -4,-100 350,-100 350,4 -4,4"/>
<!-- Node7 -->
<g id="node1" class="node"><title>Node7</title>
<polygon fill="#bfbfbf" stroke="black" points="0,-38.5 0,-57.5 110,-57.5 110,-38.5 0,-38.5"/>
<text text-anchor="middle" x="55" y="-45.5" font-family="Helvetica,sans-Serif" font-size="10.00">network_read_char</text>
</g>
<!-- Node8 -->
<g id="node2" class="node"><title>Node8</title>
<g id="a_node2"><a xlink:href="protocol__utils_8h.html#a4b463fcc042e8f1ab593b1c0811d8f74" target="_top" xlink:title="Read and parse a response from the server. ">
<polygon fill="white" stroke="black" points="146,-38.5 146,-57.5 239,-57.5 239,-38.5 146,-38.5"/>
<text text-anchor="middle" x="192.5" y="-45.5" font-family="Helvetica,sans-Serif" font-size="10.00">parse_response</text>
</a>
</g>
</g>
<!-- Node7&#45;&gt;Node8 -->
<g id="edge1" class="edge"><title>Node7&#45;&gt;Node8</title>
<path fill="none" stroke="midnightblue" d="M120.372,-48C128.982,-48 137.665,-48 145.862,-48"/>
<polygon fill="midnightblue" stroke="midnightblue" points="120.332,-44.5001 110.332,-48 120.332,-51.5001 120.332,-44.5001"/>
</g>
<!-- Node9 -->
<g id="node3" class="node"><title>Node9</title>
<g id="a_node3"><a xlink:href="protocol__utils_8h.html#a5d206893e677c3fd59b8a39fa36525c4" target="_top" xlink:title="Print out some basic info about a morgenlichtd server. ">
<polygon fill="white" stroke="black" points="275,-76.5 275,-95.5 346,-95.5 346,-76.5 275,-76.5"/>
<text text-anchor="middle" x="310.5" y="-83.5" font-family="Helvetica,sans-Serif" font-size="10.00">server_info</text>
</a>
</g>
</g>
<!-- Node8&#45;&gt;Node9 -->
<g id="edge2" class="edge"><title>Node8&#45;&gt;Node9</title>
<path fill="none" stroke="midnightblue" d="M232.653,-60.8259C248.218,-65.9247 265.814,-71.6891 280.238,-76.4141"/>
<polygon fill="midnightblue" stroke="midnightblue" points="233.364,-57.3761 222.772,-57.589 231.185,-64.0282 233.364,-57.3761"/>
</g>
<!-- Node10 -->
<g id="node4" class="node"><title>Node10</title>
<g id="a_node4"><a xlink:href="protocol__utils_8h.html#abcc9f0aee09649afac92089027fcaf8c" target="_top" xlink:title="Add a new alarm or update an existing one. ">
<polygon fill="white" stroke="black" points="276.5,-38.5 276.5,-57.5 344.5,-57.5 344.5,-38.5 276.5,-38.5"/>
<text text-anchor="middle" x="310.5" y="-45.5" font-family="Helvetica,sans-Serif" font-size="10.00">alarm_add</text>
</a>
</g>
</g>
<!-- Node8&#45;&gt;Node10 -->
<g id="edge3" class="edge"><title>Node8&#45;&gt;Node10</title>
<path fill="none" stroke="midnightblue" d="M249.052,-48C258.375,-48 267.783,-48 276.31,-48"/>
<polygon fill="midnightblue" stroke="midnightblue" points="249.013,-44.5001 239.013,-48 249.013,-51.5001 249.013,-44.5001"/>
</g>
<!-- Node11 -->
<g id="node5" class="node"><title>Node11</title>
<g id="a_node5"><a xlink:href="protocol__utils_8h.html#abbb1b92bcb4acb02653d3392866b99fc" target="_top" xlink:title="List all alarms on the server. ">
<polygon fill="white" stroke="black" points="278,-0.5 278,-19.5 343,-19.5 343,-0.5 278,-0.5"/>
<text text-anchor="middle" x="310.5" y="-7.5" font-family="Helvetica,sans-Serif" font-size="10.00">alarm_list</text>
</a>
</g>
</g>
<!-- Node8&#45;&gt;Node11 -->
<g id="edge4" class="edge"><title>Node8&#45;&gt;Node11</title>
<path fill="none" stroke="midnightblue" d="M232.653,-35.1741C248.218,-30.0753 265.814,-24.3109 280.238,-19.5859"/>
<polygon fill="midnightblue" stroke="midnightblue" points="231.185,-31.9718 222.772,-38.411 233.364,-38.6239 231.185,-31.9718"/>
</g>
</g>
</svg>
