<?xml version="1.0" encoding="UTF-8" standalone="no"?>
<!DOCTYPE svg PUBLIC "-//W3C//DTD SVG 1.1//EN"
 "http://www.w3.org/Graphics/SVG/1.1/DTD/svg11.dtd">
<!-- Generated by graphviz version 2.38.0 (20140413.2041)
 -->
<!-- Title: network_read_char Pages: 1 -->
<svg width="354pt" height="28pt"
 viewBox="0.00 0.00 354.00 28.00" xmlns="http://www.w3.org/2000/svg" xmlns:xlink="http://www.w3.org/1999/xlink">
<g id="graph0" class="graph" transform="scale(1 1) rotate(0) translate(4 24)">
<title>network_read_char</title>
<polygon fill="white" stroke="none" points="-4,4 -4,-24 350,-24 350,4 -4,4"/>
<!-- Node6 -->
<g id="node1" class="node"><title>Node6</title>
<polygon fill="#bfbfbf" stroke="black" points="0,-0.5 0,-19.5 110,-19.5 110,-0.5 0,-0.5"/>
<text text-anchor="middle" x="55" y="-7.5" font-family="Helvetica,sans-Serif" font-size="10.00">network_read_char</text>
</g>
<!-- Node7 -->
<g id="node2" class="node"><title>Node7</title>
<g id="a_node2"><a xlink:href="protocol__utils_8h.html#a4b463fcc042e8f1ab593b1c0811d8f74" target="_top" xlink:title="Read and parse a response from the server. ">
<polygon fill="white" stroke="black" points="146,-0.5 146,-19.5 239,-19.5 239,-0.5 146,-0.5"/>
<text text-anchor="middle" x="192.5" y="-7.5" font-family="Helvetica,sans-Serif" font-size="10.00">parse_response</text>
</a>
</g>
</g>
<!-- Node6&#45;&gt;Node7 -->
<g id="edge1" class="edge"><title>Node6&#45;&gt;Node7</title>
<path fill="none" stroke="midnightblue" d="M120.372,-10C128.982,-10 137.665,-10 145.862,-10"/>
<polygon fill="midnightblue" stroke="midnightblue" points="120.332,-6.5001 110.332,-10 120.332,-13.5001 120.332,-6.5001"/>
</g>
<!-- Node8 -->
<g id="node3" class="node"><title>Node8</title>
<g id="a_node3"><a xlink:href="protocol__utils_8h.html#adffc5503f5f4252925985ed3b9a5dac5" target="_top" xlink:title="Print out some basic info about a morgenlichtd server. ">
<polygon fill="white" stroke="black" points="275,-0.5 275,-19.5 346,-19.5 346,-0.5 275,-0.5"/>
<text text-anchor="middle" x="310.5" y="-7.5" font-family="Helvetica,sans-Serif" font-size="10.00">server_info</text>
</a>
</g>
</g>
<!-- Node7&#45;&gt;Node8 -->
<g id="edge2" class="edge"><title>Node7&#45;&gt;Node8</title>
<path fill="none" stroke="midnightblue" d="M249.209,-10C257.963,-10 266.787,-10 274.88,-10"/>
<polygon fill="midnightblue" stroke="midnightblue" points="249.013,-6.5001 239.013,-10 249.013,-13.5001 249.013,-6.5001"/>
</g>
</g>
</svg>
