<?xml version="1.0" encoding="UTF-8" standalone="no"?>
<!DOCTYPE svg PUBLIC "-//W3C//DTD SVG 1.1//EN"
 "http://www.w3.org/Graphics/SVG/1.1/DTD/svg11.dtd">
<!-- Generated by graphviz version 2.38.0 (20140413.2041)
 -->
<!-- Title: init_networking Pages: 1 -->
<svg width="238pt" height="142pt"
 viewBox="0.00 0.00 238.00 142.00" xmlns="http://www.w3.org/2000/svg" xmlns:xlink="http://www.w3.org/1999/xlink">
<g id="graph0" class="graph" transform="scale(1 1) rotate(0) translate(4 138)">
<title>init_networking</title>
<polygon fill="white" stroke="none" points="-4,4 -4,-138 234,-138 234,4 -4,4"/>
<!-- Node1 -->
<g id="node1" class="node"><title>Node1</title>
<polygon fill="#bfbfbf" stroke="black" points="0,-57.5 0,-76.5 92,-76.5 92,-57.5 0,-57.5"/>
<text text-anchor="middle" x="46" y="-64.5" font-family="Helvetica,sans-Serif" font-size="10.00">init_networking</text>
</g>
<!-- Node2 -->
<g id="node2" class="node"><title>Node2</title>
<g id="a_node2"><a xlink:href="protocol__utils_8h.html#abcc9f0aee09649afac92089027fcaf8c" target="_top" xlink:title="Add a new alarm or update an existing one. ">
<polygon fill="white" stroke="black" points="145,-114.5 145,-133.5 213,-133.5 213,-114.5 145,-114.5"/>
<text text-anchor="middle" x="179" y="-121.5" font-family="Helvetica,sans-Serif" font-size="10.00">alarm_add</text>
</a>
</g>
</g>
<!-- Node1&#45;&gt;Node2 -->
<g id="edge1" class="edge"><title>Node1&#45;&gt;Node2</title>
<path fill="none" stroke="midnightblue" d="M75.4813,-81.0048C90.9,-88.4229 110.353,-97.5204 128,-105 135.609,-108.225 143.971,-111.504 151.642,-114.41"/>
<polygon fill="midnightblue" stroke="midnightblue" points="76.9802,-77.8419 66.4546,-76.6326 73.9287,-84.1418 76.9802,-77.8419"/>
</g>
<!-- Node3 -->
<g id="node3" class="node"><title>Node3</title>
<g id="a_node3"><a xlink:href="protocol__utils_8h.html#a579298df3cc09a2b73fbe7172cff9621" target="_top" xlink:title="Perform the most basic alarm commands. ">
<polygon fill="white" stroke="black" points="128,-76.5 128,-95.5 230,-95.5 230,-76.5 128,-76.5"/>
<text text-anchor="middle" x="179" y="-83.5" font-family="Helvetica,sans-Serif" font-size="10.00">alarm_basic_cmd</text>
</a>
</g>
</g>
<!-- Node1&#45;&gt;Node3 -->
<g id="edge2" class="edge"><title>Node1&#45;&gt;Node3</title>
<path fill="none" stroke="midnightblue" d="M102.011,-74.9787C110.596,-76.2239 119.428,-77.5049 127.896,-78.733"/>
<polygon fill="midnightblue" stroke="midnightblue" points="102.482,-71.5104 92.0828,-73.5387 101.477,-78.4379 102.482,-71.5104"/>
</g>
<!-- Node4 -->
<g id="node4" class="node"><title>Node4</title>
<g id="a_node4"><a xlink:href="protocol__utils_8h.html#abbb1b92bcb4acb02653d3392866b99fc" target="_top" xlink:title="List all alarms on the server. ">
<polygon fill="white" stroke="black" points="146.5,-38.5 146.5,-57.5 211.5,-57.5 211.5,-38.5 146.5,-38.5"/>
<text text-anchor="middle" x="179" y="-45.5" font-family="Helvetica,sans-Serif" font-size="10.00">alarm_list</text>
</a>
</g>
</g>
<!-- Node1&#45;&gt;Node4 -->
<g id="edge3" class="edge"><title>Node1&#45;&gt;Node4</title>
<path fill="none" stroke="midnightblue" d="M102.356,-58.9713C117.422,-56.7861 133.223,-54.4944 146.463,-52.574"/>
<polygon fill="midnightblue" stroke="midnightblue" points="101.477,-55.5621 92.0828,-60.4613 102.482,-62.4896 101.477,-55.5621"/>
</g>
<!-- Node5 -->
<g id="node5" class="node"><title>Node5</title>
<g id="a_node5"><a xlink:href="protocol__utils_8h.html#a5d206893e677c3fd59b8a39fa36525c4" target="_top" xlink:title="Print out some basic info about a morgenlichtd server. ">
<polygon fill="white" stroke="black" points="143.5,-0.5 143.5,-19.5 214.5,-19.5 214.5,-0.5 143.5,-0.5"/>
<text text-anchor="middle" x="179" y="-7.5" font-family="Helvetica,sans-Serif" font-size="10.00">server_info</text>
</a>
</g>
</g>
<!-- Node1&#45;&gt;Node5 -->
<g id="edge4" class="edge"><title>Node1&#45;&gt;Node5</title>
<path fill="none" stroke="midnightblue" d="M75.4813,-52.9952C90.9,-45.5771 110.353,-36.4796 128,-29 135.609,-25.7747 143.971,-22.4956 151.642,-19.5899"/>
<polygon fill="midnightblue" stroke="midnightblue" points="73.9287,-49.8582 66.4546,-57.3674 76.9802,-56.1581 73.9287,-49.8582"/>
</g>
</g>
</svg>
