<?xml version="1.0" encoding="UTF-8" standalone="no"?>
<!DOCTYPE svg PUBLIC "-//W3C//DTD SVG 1.1//EN"
 "http://www.w3.org/Graphics/SVG/1.1/DTD/svg11.dtd">
<!-- Generated by graphviz version 2.38.0 (20140413.2041)
 -->
<!-- Title: network_write Pages: 1 -->
<svg width="201pt" height="104pt"
 viewBox="0.00 0.00 201.00 104.00" xmlns="http://www.w3.org/2000/svg" xmlns:xlink="http://www.w3.org/1999/xlink">
<g id="graph0" class="graph" transform="scale(1 1) rotate(0) translate(4 100)">
<title>network_write</title>
<polygon fill="white" stroke="none" points="-4,4 -4,-100 197,-100 197,4 -4,4"/>
<!-- Node13 -->
<g id="node1" class="node"><title>Node13</title>
<polygon fill="#bfbfbf" stroke="black" points="0,-38.5 0,-57.5 86,-57.5 86,-38.5 0,-38.5"/>
<text text-anchor="middle" x="43" y="-45.5" font-family="Helvetica,sans-Serif" font-size="10.00">network_write</text>
</g>
<!-- Node14 -->
<g id="node2" class="node"><title>Node14</title>
<g id="a_node2"><a xlink:href="protocol__utils_8h.html#abcc9f0aee09649afac92089027fcaf8c" target="_top" xlink:title="Add a new alarm or update an existing one. ">
<polygon fill="white" stroke="black" points="123.5,-76.5 123.5,-95.5 191.5,-95.5 191.5,-76.5 123.5,-76.5"/>
<text text-anchor="middle" x="157.5" y="-83.5" font-family="Helvetica,sans-Serif" font-size="10.00">alarm_add</text>
</a>
</g>
</g>
<!-- Node13&#45;&gt;Node14 -->
<g id="edge1" class="edge"><title>Node13&#45;&gt;Node14</title>
<path fill="none" stroke="midnightblue" d="M81.9715,-60.8259C97.0666,-65.9247 114.132,-71.6891 128.121,-76.4141"/>
<polygon fill="midnightblue" stroke="midnightblue" points="82.9827,-57.4733 72.3885,-57.589 80.7426,-64.1052 82.9827,-57.4733"/>
</g>
<!-- Node15 -->
<g id="node3" class="node"><title>Node15</title>
<g id="a_node3"><a xlink:href="protocol__utils_8h.html#abbb1b92bcb4acb02653d3392866b99fc" target="_top" xlink:title="List all alarms on the server. ">
<polygon fill="white" stroke="black" points="125,-38.5 125,-57.5 190,-57.5 190,-38.5 125,-38.5"/>
<text text-anchor="middle" x="157.5" y="-45.5" font-family="Helvetica,sans-Serif" font-size="10.00">alarm_list</text>
</a>
</g>
</g>
<!-- Node13&#45;&gt;Node15 -->
<g id="edge2" class="edge"><title>Node13&#45;&gt;Node15</title>
<path fill="none" stroke="midnightblue" d="M96.3028,-48C106.09,-48 116.038,-48 124.953,-48"/>
<polygon fill="midnightblue" stroke="midnightblue" points="96.211,-44.5001 86.2109,-48 96.2109,-51.5001 96.211,-44.5001"/>
</g>
<!-- Node16 -->
<g id="node4" class="node"><title>Node16</title>
<g id="a_node4"><a xlink:href="protocol__utils_8h.html#a5d206893e677c3fd59b8a39fa36525c4" target="_top" xlink:title="Print out some basic info about a morgenlichtd server. ">
<polygon fill="white" stroke="black" points="122,-0.5 122,-19.5 193,-19.5 193,-0.5 122,-0.5"/>
<text text-anchor="middle" x="157.5" y="-7.5" font-family="Helvetica,sans-Serif" font-size="10.00">server_info</text>
</a>
</g>
</g>
<!-- Node13&#45;&gt;Node16 -->
<g id="edge3" class="edge"><title>Node13&#45;&gt;Node16</title>
<path fill="none" stroke="midnightblue" d="M81.9715,-35.1741C97.0666,-30.0753 114.132,-24.3109 128.121,-19.5859"/>
<polygon fill="midnightblue" stroke="midnightblue" points="80.7426,-31.8948 72.3885,-38.411 82.9827,-38.5267 80.7426,-31.8948"/>
</g>
</g>
</svg>
