<?xml version="1.0" encoding="UTF-8" standalone="no"?>
<!DOCTYPE svg PUBLIC "-//W3C//DTD SVG 1.1//EN"
 "http://www.w3.org/Graphics/SVG/1.1/DTD/svg11.dtd">
<!-- Generated by graphviz version 2.38.0 (20140413.2041)
 -->
<!-- Title: alarm_add Pages: 1 -->
<svg width="351pt" height="142pt"
 viewBox="0.00 0.00 351.00 142.00" xmlns="http://www.w3.org/2000/svg" xmlns:xlink="http://www.w3.org/1999/xlink">
<g id="graph0" class="graph" transform="scale(1 1) rotate(0) translate(4 138)">
<title>alarm_add</title>
<polygon fill="white" stroke="none" points="-4,4 -4,-138 347,-138 347,4 -4,4"/>
<!-- Node0 -->
<g id="node1" class="node"><title>Node0</title>
<polygon fill="#bfbfbf" stroke="black" points="0,-57.5 0,-76.5 68,-76.5 68,-57.5 0,-57.5"/>
<text text-anchor="middle" x="34" y="-64.5" font-family="Helvetica,sans-Serif" font-size="10.00">alarm_add</text>
</g>
<!-- Node1 -->
<g id="node2" class="node"><title>Node1</title>
<g id="a_node2"><a xlink:href="networking_8h.html#ae811a1f85c2bb44a14d73214e0e1b48d" target="_top" xlink:title="Initialise the required libraries and the TCP connection to the server. ">
<polygon fill="white" stroke="black" points="104.5,-114.5 104.5,-133.5 196.5,-133.5 196.5,-114.5 104.5,-114.5"/>
<text text-anchor="middle" x="150.5" y="-121.5" font-family="Helvetica,sans-Serif" font-size="10.00">init_networking</text>
</a>
</g>
</g>
<!-- Node0&#45;&gt;Node1 -->
<g id="edge1" class="edge"><title>Node0&#45;&gt;Node1</title>
<path fill="none" stroke="midnightblue" d="M51.1901,-76.5654C65.0104,-84.5725 85.5241,-96.0868 104,-105 107.816,-106.841 111.858,-108.681 115.895,-110.45"/>
<polygon fill="midnightblue" stroke="midnightblue" points="114.628,-113.715 125.199,-114.421 117.375,-107.276 114.628,-113.715"/>
</g>
<!-- Node2 -->
<g id="node3" class="node"><title>Node2</title>
<g id="a_node3"><a xlink:href="networking_8h.html#a6c56eb3350af36e56b684ba7604cdb60" target="_top" xlink:title="Send a message to the server via TCP. ">
<polygon fill="white" stroke="black" points="107.5,-76.5 107.5,-95.5 193.5,-95.5 193.5,-76.5 107.5,-76.5"/>
<text text-anchor="middle" x="150.5" y="-83.5" font-family="Helvetica,sans-Serif" font-size="10.00">network_write</text>
</a>
</g>
</g>
<!-- Node0&#45;&gt;Node2 -->
<g id="edge2" class="edge"><title>Node0&#45;&gt;Node2</title>
<path fill="none" stroke="midnightblue" d="M68.1181,-72.4956C77.3317,-74.0245 87.566,-75.7227 97.5808,-77.3846"/>
<polygon fill="midnightblue" stroke="midnightblue" points="97.0385,-80.8424 107.477,-79.0267 98.1844,-73.9368 97.0385,-80.8424"/>
</g>
<!-- Node3 -->
<g id="node4" class="node"><title>Node3</title>
<g id="a_node4"><a xlink:href="protocol__utils_8h.html#a4b463fcc042e8f1ab593b1c0811d8f74" target="_top" xlink:title="Read and parse a response from the server. ">
<polygon fill="white" stroke="black" points="104,-38.5 104,-57.5 197,-57.5 197,-38.5 104,-38.5"/>
<text text-anchor="middle" x="150.5" y="-45.5" font-family="Helvetica,sans-Serif" font-size="10.00">parse_response</text>
</a>
</g>
</g>
<!-- Node0&#45;&gt;Node3 -->
<g id="edge3" class="edge"><title>Node0&#45;&gt;Node3</title>
<path fill="none" stroke="midnightblue" d="M68.1181,-61.5044C76.0934,-60.181 84.8333,-58.7307 93.5337,-57.287"/>
<polygon fill="midnightblue" stroke="midnightblue" points="94.3888,-60.693 103.681,-55.6032 93.2428,-53.7875 94.3888,-60.693"/>
</g>
<!-- Node5 -->
<g id="node6" class="node"><title>Node5</title>
<g id="a_node6"><a xlink:href="networking_8h.html#aed9a5ef41373d2bee0c1366e70c088a7" target="_top" xlink:title="Close the TCP connection if it is still active, then de&#45;initialize the used libraries. ">
<polygon fill="white" stroke="black" points="238,-0.5 238,-19.5 338,-19.5 338,-0.5 238,-0.5"/>
<text text-anchor="middle" x="288" y="-7.5" font-family="Helvetica,sans-Serif" font-size="10.00">term_networking</text>
</a>
</g>
</g>
<!-- Node0&#45;&gt;Node5 -->
<g id="edge6" class="edge"><title>Node0&#45;&gt;Node5</title>
<path fill="none" stroke="midnightblue" d="M48.5277,-57.3957C61.9289,-48.418 83.3795,-35.4562 104,-29 143.951,-16.4915 190.961,-11.8108 227.33,-10.2213"/>
<polygon fill="midnightblue" stroke="midnightblue" points="227.908,-13.7025 237.772,-9.83641 227.65,-6.70722 227.908,-13.7025"/>
</g>
<!-- Node4 -->
<g id="node5" class="node"><title>Node4</title>
<g id="a_node5"><a xlink:href="networking_8h.html#a452c1ce9209a371b08301df0fb35b7aa" target="_top" xlink:title="Read a single char from the server. ">
<polygon fill="white" stroke="black" points="233,-38.5 233,-57.5 343,-57.5 343,-38.5 233,-38.5"/>
<text text-anchor="middle" x="288" y="-45.5" font-family="Helvetica,sans-Serif" font-size="10.00">network_read_char</text>
</a>
</g>
</g>
<!-- Node3&#45;&gt;Node4 -->
<g id="edge4" class="edge"><title>Node3&#45;&gt;Node4</title>
<path fill="none" stroke="midnightblue" d="M197.374,-48C205.452,-48 213.996,-48 222.471,-48"/>
<polygon fill="midnightblue" stroke="midnightblue" points="222.741,-51.5001 232.741,-48 222.741,-44.5001 222.741,-51.5001"/>
</g>
<!-- Node3&#45;&gt;Node5 -->
<g id="edge5" class="edge"><title>Node3&#45;&gt;Node5</title>
<path fill="none" stroke="midnightblue" d="M185.692,-38.411C203.104,-33.5281 224.471,-27.5357 243.087,-22.315"/>
<polygon fill="midnightblue" stroke="midnightblue" points="244.135,-25.6562 252.819,-19.5859 242.245,-18.9163 244.135,-25.6562"/>
</g>
</g>
</svg>
