<?xml version="1.0" encoding="UTF-8" standalone="no"?>
<!DOCTYPE svg PUBLIC "-//W3C//DTD SVG 1.1//EN"
 "http://www.w3.org/Graphics/SVG/1.1/DTD/svg11.dtd">
<!-- Generated by graphviz version 2.38.0 (20140413.2041)
 -->
<!-- Title: protocol_utils.h Pages: 1 -->
<svg width="629pt" height="140pt"
 viewBox="0.00 0.00 629.00 140.00" xmlns="http://www.w3.org/2000/svg" xmlns:xlink="http://www.w3.org/1999/xlink">
<g id="graph0" class="graph" transform="scale(1 1) rotate(0) translate(4 136)">
<title>protocol_utils.h</title>
<polygon fill="white" stroke="none" points="-4,4 -4,-136 625,-136 625,4 -4,4"/>
<!-- Node0 -->
<g id="node1" class="node"><title>Node0</title>
<polygon fill="#bfbfbf" stroke="black" points="202.5,-112.5 202.5,-131.5 294.5,-131.5 294.5,-112.5 202.5,-112.5"/>
<text text-anchor="middle" x="248.5" y="-119.5" font-family="Helvetica,sans-Serif" font-size="10.00">protocol_utils.h</text>
</g>
<!-- Node1 -->
<g id="node2" class="node"><title>Node1</title>
<g id="a_node2"><a xlink:href="networking_8h.html" target="_top" xlink:title="This file provides an abstraction layer for the network connection to the morgenlichtd server...">
<polygon fill="white" stroke="black" points="208.5,-56.5 208.5,-75.5 288.5,-75.5 288.5,-56.5 208.5,-56.5"/>
<text text-anchor="middle" x="248.5" y="-63.5" font-family="Helvetica,sans-Serif" font-size="10.00">networking.h</text>
</a>
</g>
</g>
<!-- Node0&#45;&gt;Node1 -->
<g id="edge1" class="edge"><title>Node0&#45;&gt;Node1</title>
<path fill="none" stroke="midnightblue" d="M248.5,-112.083C248.5,-105.006 248.5,-94.8611 248.5,-85.9865"/>
<polygon fill="midnightblue" stroke="midnightblue" points="252,-85.751 248.5,-75.7511 245,-85.7511 252,-85.751"/>
</g>
<!-- Node3 -->
<g id="node4" class="node"><title>Node3</title>
<polygon fill="white" stroke="#bfbfbf" points="0,-0.5 0,-19.5 53,-19.5 53,-0.5 0,-0.5"/>
<text text-anchor="middle" x="26.5" y="-7.5" font-family="Helvetica,sans-Serif" font-size="10.00">string.h</text>
</g>
<!-- Node0&#45;&gt;Node3 -->
<g id="edge10" class="edge"><title>Node0&#45;&gt;Node3</title>
<path fill="none" stroke="midnightblue" d="M231.08,-112.368C192.336,-93.1711 98.8353,-46.8418 52.8856,-24.074"/>
<polygon fill="midnightblue" stroke="midnightblue" points="54.3534,-20.8952 43.839,-19.5914 51.2455,-27.1674 54.3534,-20.8952"/>
</g>
<!-- Node10 -->
<g id="node11" class="node"><title>Node10</title>
<polygon fill="white" stroke="#bfbfbf" points="307,-56.5 307,-75.5 360,-75.5 360,-56.5 307,-56.5"/>
<text text-anchor="middle" x="333.5" y="-63.5" font-family="Helvetica,sans-Serif" font-size="10.00">stdlib.h</text>
</g>
<!-- Node0&#45;&gt;Node10 -->
<g id="edge11" class="edge"><title>Node0&#45;&gt;Node10</title>
<path fill="none" stroke="midnightblue" d="M262.157,-112.324C275.416,-103.9 295.768,-90.9709 311.346,-81.0741"/>
<polygon fill="midnightblue" stroke="midnightblue" points="313.313,-83.9711 319.877,-75.6545 309.56,-78.0626 313.313,-83.9711"/>
</g>
<!-- Node2 -->
<g id="node3" class="node"><title>Node2</title>
<polygon fill="white" stroke="#bfbfbf" points="71.5,-0.5 71.5,-19.5 127.5,-19.5 127.5,-0.5 71.5,-0.5"/>
<text text-anchor="middle" x="99.5" y="-7.5" font-family="Helvetica,sans-Serif" font-size="10.00">unistd.h</text>
</g>
<!-- Node1&#45;&gt;Node2 -->
<g id="edge2" class="edge"><title>Node1&#45;&gt;Node2</title>
<path fill="none" stroke="midnightblue" d="M224.891,-56.4435C200.042,-47.4381 160.726,-33.1891 132.746,-23.049"/>
<polygon fill="midnightblue" stroke="midnightblue" points="133.593,-19.6332 122.999,-19.5164 131.208,-26.2144 133.593,-19.6332"/>
</g>
<!-- Node1&#45;&gt;Node3 -->
<g id="edge3" class="edge"><title>Node1&#45;&gt;Node3</title>
<path fill="none" stroke="midnightblue" d="M212.823,-56.4536C177.341,-47.935 121.091,-34.3799 62.9544,-20.0979"/>
<polygon fill="midnightblue" stroke="midnightblue" points="63.7772,-16.6961 53.2307,-17.7067 62.1056,-23.4935 63.7772,-16.6961"/>
</g>
<!-- Node4 -->
<g id="node5" class="node"><title>Node4</title>
<polygon fill="white" stroke="#bfbfbf" points="146,-0.5 146,-19.5 205,-19.5 205,-0.5 146,-0.5"/>
<text text-anchor="middle" x="175.5" y="-7.5" font-family="Helvetica,sans-Serif" font-size="10.00">strings.h</text>
</g>
<!-- Node1&#45;&gt;Node4 -->
<g id="edge4" class="edge"><title>Node1&#45;&gt;Node4</title>
<path fill="none" stroke="midnightblue" d="M236.771,-56.324C225.663,-48.1066 208.758,-35.6017 195.517,-25.8069"/>
<polygon fill="midnightblue" stroke="midnightblue" points="197.563,-22.9671 187.442,-19.8339 193.4,-28.5948 197.563,-22.9671"/>
</g>
<!-- Node5 -->
<g id="node6" class="node"><title>Node5</title>
<polygon fill="white" stroke="#bfbfbf" points="223.5,-0.5 223.5,-19.5 273.5,-19.5 273.5,-0.5 223.5,-0.5"/>
<text text-anchor="middle" x="248.5" y="-7.5" font-family="Helvetica,sans-Serif" font-size="10.00">stdio.h</text>
</g>
<!-- Node1&#45;&gt;Node5 -->
<g id="edge5" class="edge"><title>Node1&#45;&gt;Node5</title>
<path fill="none" stroke="midnightblue" d="M248.5,-56.083C248.5,-49.0059 248.5,-38.8611 248.5,-29.9865"/>
<polygon fill="midnightblue" stroke="midnightblue" points="252,-29.751 248.5,-19.7511 245,-29.7511 252,-29.751"/>
</g>
<!-- Node6 -->
<g id="node7" class="node"><title>Node6</title>
<polygon fill="white" stroke="#bfbfbf" points="291.5,-0.5 291.5,-19.5 363.5,-19.5 363.5,-0.5 291.5,-0.5"/>
<text text-anchor="middle" x="327.5" y="-7.5" font-family="Helvetica,sans-Serif" font-size="10.00">sys/types.h</text>
</g>
<!-- Node1&#45;&gt;Node6 -->
<g id="edge6" class="edge"><title>Node1&#45;&gt;Node6</title>
<path fill="none" stroke="midnightblue" d="M261.193,-56.324C273.401,-47.979 292.078,-35.2122 306.503,-25.3524"/>
<polygon fill="midnightblue" stroke="midnightblue" points="308.558,-28.1871 314.839,-19.6545 304.608,-22.4082 308.558,-28.1871"/>
</g>
<!-- Node7 -->
<g id="node8" class="node"><title>Node7</title>
<polygon fill="white" stroke="#bfbfbf" points="382,-0.5 382,-19.5 459,-19.5 459,-0.5 382,-0.5"/>
<text text-anchor="middle" x="420.5" y="-7.5" font-family="Helvetica,sans-Serif" font-size="10.00">sys/socket.h</text>
</g>
<!-- Node1&#45;&gt;Node7 -->
<g id="edge7" class="edge"><title>Node1&#45;&gt;Node7</title>
<path fill="none" stroke="midnightblue" d="M275.754,-56.4435C304.941,-47.2801 351.421,-32.6876 383.809,-22.5192"/>
<polygon fill="midnightblue" stroke="midnightblue" points="384.881,-25.8512 393.374,-19.5164 382.784,-19.1726 384.881,-25.8512"/>
</g>
<!-- Node8 -->
<g id="node9" class="node"><title>Node8</title>
<polygon fill="white" stroke="#bfbfbf" points="477.5,-0.5 477.5,-19.5 549.5,-19.5 549.5,-0.5 477.5,-0.5"/>
<text text-anchor="middle" x="513.5" y="-7.5" font-family="Helvetica,sans-Serif" font-size="10.00">netinet/in.h</text>
</g>
<!-- Node1&#45;&gt;Node8 -->
<g id="edge8" class="edge"><title>Node1&#45;&gt;Node8</title>
<path fill="none" stroke="midnightblue" d="M288.748,-56.7986C336.7,-47.0271 416.655,-30.7345 467.147,-20.4454"/>
<polygon fill="midnightblue" stroke="midnightblue" points="468.044,-23.8348 477.144,-18.4085 466.646,-16.9757 468.044,-23.8348"/>
</g>
<!-- Node9 -->
<g id="node10" class="node"><title>Node9</title>
<polygon fill="white" stroke="#bfbfbf" points="568,-0.5 568,-19.5 621,-19.5 621,-0.5 568,-0.5"/>
<text text-anchor="middle" x="594.5" y="-7.5" font-family="Helvetica,sans-Serif" font-size="10.00">netdb.h</text>
</g>
<!-- Node1&#45;&gt;Node9 -->
<g id="edge9" class="edge"><title>Node1&#45;&gt;Node9</title>
<path fill="none" stroke="midnightblue" d="M288.593,-57.6359C291.941,-57.0656 295.277,-56.513 298.5,-56 410.558,-38.1645 442.251,-41.949 557.88,-19.9248"/>
<polygon fill="midnightblue" stroke="midnightblue" points="558.679,-23.3354 567.835,-18.0051 557.353,-16.4621 558.679,-23.3354"/>
</g>
</g>
</svg>
