<?xml version="1.0" encoding="UTF-8" standalone="no"?>
<!DOCTYPE svg PUBLIC "-//W3C//DTD SVG 1.1//EN"
 "http://www.w3.org/Graphics/SVG/1.1/DTD/svg11.dtd">
<!-- Generated by graphviz version 2.38.0 (20140413.2041)
 -->
<!-- Title: parse_response Pages: 1 -->
<svg width="247pt" height="66pt"
 viewBox="0.00 0.00 247.00 66.00" xmlns="http://www.w3.org/2000/svg" xmlns:xlink="http://www.w3.org/1999/xlink">
<g id="graph0" class="graph" transform="scale(1 1) rotate(0) translate(4 62)">
<title>parse_response</title>
<polygon fill="white" stroke="none" points="-4,4 -4,-62 243,-62 243,4 -4,4"/>
<!-- Node17 -->
<g id="node1" class="node"><title>Node17</title>
<polygon fill="#bfbfbf" stroke="black" points="0,-19.5 0,-38.5 93,-38.5 93,-19.5 0,-19.5"/>
<text text-anchor="middle" x="46.5" y="-26.5" font-family="Helvetica,sans-Serif" font-size="10.00">parse_response</text>
</g>
<!-- Node18 -->
<g id="node2" class="node"><title>Node18</title>
<g id="a_node2"><a xlink:href="networking_8h.html#a452c1ce9209a371b08301df0fb35b7aa" target="_top" xlink:title="Read a single char from the server. ">
<polygon fill="white" stroke="black" points="129,-38.5 129,-57.5 239,-57.5 239,-38.5 129,-38.5"/>
<text text-anchor="middle" x="184" y="-45.5" font-family="Helvetica,sans-Serif" font-size="10.00">network_read_char</text>
</a>
</g>
</g>
<!-- Node17&#45;&gt;Node18 -->
<g id="edge1" class="edge"><title>Node17&#45;&gt;Node18</title>
<path fill="none" stroke="midnightblue" d="M93.3741,-35.4325C101.541,-36.5777 110.183,-37.7896 118.751,-38.9909"/>
<polygon fill="midnightblue" stroke="midnightblue" points="118.352,-42.4691 128.741,-40.3917 119.324,-35.5369 118.352,-42.4691"/>
</g>
<!-- Node19 -->
<g id="node3" class="node"><title>Node19</title>
<g id="a_node3"><a xlink:href="networking_8h.html#aed9a5ef41373d2bee0c1366e70c088a7" target="_top" xlink:title="Close the TCP connection if it is still active, then de&#45;initialize the used libraries. ">
<polygon fill="white" stroke="black" points="134,-0.5 134,-19.5 234,-19.5 234,-0.5 134,-0.5"/>
<text text-anchor="middle" x="184" y="-7.5" font-family="Helvetica,sans-Serif" font-size="10.00">term_networking</text>
</a>
</g>
</g>
<!-- Node17&#45;&gt;Node19 -->
<g id="edge2" class="edge"><title>Node17&#45;&gt;Node19</title>
<path fill="none" stroke="midnightblue" d="M93.3741,-22.5675C103.163,-21.1948 113.635,-19.7265 123.842,-18.2952"/>
<polygon fill="midnightblue" stroke="midnightblue" points="124.509,-21.7361 133.926,-16.8813 123.537,-14.8039 124.509,-21.7361"/>
</g>
</g>
</svg>
