<?xml version="1.0" encoding="UTF-8" standalone="no"?>
<!DOCTYPE svg PUBLIC "-//W3C//DTD SVG 1.1//EN"
 "http://www.w3.org/Graphics/SVG/1.1/DTD/svg11.dtd">
<!-- Generated by graphviz version 2.38.0 (20140413.2041)
 -->
<!-- Title: parse_response Pages: 1 -->
<svg width="208pt" height="104pt"
 viewBox="0.00 0.00 208.00 104.00" xmlns="http://www.w3.org/2000/svg" xmlns:xlink="http://www.w3.org/1999/xlink">
<g id="graph0" class="graph" transform="scale(1 1) rotate(0) translate(4 100)">
<title>parse_response</title>
<polygon fill="white" stroke="none" points="-4,4 -4,-100 204,-100 204,4 -4,4"/>
<!-- Node20 -->
<g id="node1" class="node"><title>Node20</title>
<polygon fill="#bfbfbf" stroke="black" points="0,-38.5 0,-57.5 93,-57.5 93,-38.5 0,-38.5"/>
<text text-anchor="middle" x="46.5" y="-45.5" font-family="Helvetica,sans-Serif" font-size="10.00">parse_response</text>
</g>
<!-- Node21 -->
<g id="node2" class="node"><title>Node21</title>
<g id="a_node2"><a xlink:href="protocol__utils_8h.html#abcc9f0aee09649afac92089027fcaf8c" target="_top" xlink:title="Add a new alarm or update an existing one. ">
<polygon fill="white" stroke="black" points="130.5,-76.5 130.5,-95.5 198.5,-95.5 198.5,-76.5 130.5,-76.5"/>
<text text-anchor="middle" x="164.5" y="-83.5" font-family="Helvetica,sans-Serif" font-size="10.00">alarm_add</text>
</a>
</g>
</g>
<!-- Node20&#45;&gt;Node21 -->
<g id="edge1" class="edge"><title>Node20&#45;&gt;Node21</title>
<path fill="none" stroke="midnightblue" d="M86.6528,-60.8259C102.218,-65.9247 119.814,-71.6891 134.238,-76.4141"/>
<polygon fill="midnightblue" stroke="midnightblue" points="87.3644,-57.3761 76.7717,-57.589 85.1852,-64.0282 87.3644,-57.3761"/>
</g>
<!-- Node22 -->
<g id="node3" class="node"><title>Node22</title>
<g id="a_node3"><a xlink:href="protocol__utils_8h.html#abbb1b92bcb4acb02653d3392866b99fc" target="_top" xlink:title="List all alarms on the server. ">
<polygon fill="white" stroke="black" points="132,-38.5 132,-57.5 197,-57.5 197,-38.5 132,-38.5"/>
<text text-anchor="middle" x="164.5" y="-45.5" font-family="Helvetica,sans-Serif" font-size="10.00">alarm_list</text>
</a>
</g>
</g>
<!-- Node20&#45;&gt;Node22 -->
<g id="edge2" class="edge"><title>Node20&#45;&gt;Node22</title>
<path fill="none" stroke="midnightblue" d="M103.155,-48C112.963,-48 122.861,-48 131.723,-48"/>
<polygon fill="midnightblue" stroke="midnightblue" points="103.013,-44.5001 93.0133,-48 103.013,-51.5001 103.013,-44.5001"/>
</g>
<!-- Node23 -->
<g id="node4" class="node"><title>Node23</title>
<g id="a_node4"><a xlink:href="protocol__utils_8h.html#a5d206893e677c3fd59b8a39fa36525c4" target="_top" xlink:title="Print out some basic info about a morgenlichtd server. ">
<polygon fill="white" stroke="black" points="129,-0.5 129,-19.5 200,-19.5 200,-0.5 129,-0.5"/>
<text text-anchor="middle" x="164.5" y="-7.5" font-family="Helvetica,sans-Serif" font-size="10.00">server_info</text>
</a>
</g>
</g>
<!-- Node20&#45;&gt;Node23 -->
<g id="edge3" class="edge"><title>Node20&#45;&gt;Node23</title>
<path fill="none" stroke="midnightblue" d="M86.6528,-35.1741C102.218,-30.0753 119.814,-24.3109 134.238,-19.5859"/>
<polygon fill="midnightblue" stroke="midnightblue" points="85.1852,-31.9718 76.7717,-38.411 87.3644,-38.6239 85.1852,-31.9718"/>
</g>
</g>
</svg>
