<?xml version="1.0" encoding="UTF-8" standalone="no"?>
<!DOCTYPE svg PUBLIC "-//W3C//DTD SVG 1.1//EN"
 "http://www.w3.org/Graphics/SVG/1.1/DTD/svg11.dtd">
<!-- Generated by graphviz version 2.38.0 (20140413.2041)
 -->
<!-- Title: alarm_list Pages: 1 -->
<svg width="348pt" height="123pt"
 viewBox="0.00 0.00 348.00 123.00" xmlns="http://www.w3.org/2000/svg" xmlns:xlink="http://www.w3.org/1999/xlink">
<g id="graph0" class="graph" transform="scale(1 1) rotate(0) translate(4 119)">
<title>alarm_list</title>
<polygon fill="white" stroke="none" points="-4,4 -4,-119 344,-119 344,4 -4,4"/>
<!-- Node10 -->
<g id="node1" class="node"><title>Node10</title>
<polygon fill="#bfbfbf" stroke="black" points="0,-57.5 0,-76.5 65,-76.5 65,-57.5 0,-57.5"/>
<text text-anchor="middle" x="32.5" y="-64.5" font-family="Helvetica,sans-Serif" font-size="10.00">alarm_list</text>
</g>
<!-- Node11 -->
<g id="node2" class="node"><title>Node11</title>
<g id="a_node2"><a xlink:href="networking_8h.html#ae811a1f85c2bb44a14d73214e0e1b48d" target="_top" xlink:title="Initialise the required libraries and the TCP connection to the server. ">
<polygon fill="white" stroke="black" points="101.5,-95.5 101.5,-114.5 193.5,-114.5 193.5,-95.5 101.5,-95.5"/>
<text text-anchor="middle" x="147.5" y="-102.5" font-family="Helvetica,sans-Serif" font-size="10.00">init_networking</text>
</a>
</g>
</g>
<!-- Node10&#45;&gt;Node11 -->
<g id="edge1" class="edge"><title>Node10&#45;&gt;Node11</title>
<path fill="none" stroke="midnightblue" d="M62.0147,-76.589C76.0666,-81.3144 93.2082,-87.0789 108.37,-92.1774"/>
<polygon fill="midnightblue" stroke="midnightblue" points="107.4,-95.544 117.994,-95.4141 109.632,-88.9091 107.4,-95.544"/>
</g>
<!-- Node12 -->
<g id="node3" class="node"><title>Node12</title>
<g id="a_node3"><a xlink:href="networking_8h.html#a6c56eb3350af36e56b684ba7604cdb60" target="_top" xlink:title="Send a message to the server via TCP. ">
<polygon fill="white" stroke="black" points="104.5,-57.5 104.5,-76.5 190.5,-76.5 190.5,-57.5 104.5,-57.5"/>
<text text-anchor="middle" x="147.5" y="-64.5" font-family="Helvetica,sans-Serif" font-size="10.00">network_write</text>
</a>
</g>
</g>
<!-- Node10&#45;&gt;Node12 -->
<g id="edge2" class="edge"><title>Node10&#45;&gt;Node12</title>
<path fill="none" stroke="midnightblue" d="M65.2775,-67C74.289,-67 84.3457,-67 94.2288,-67"/>
<polygon fill="midnightblue" stroke="midnightblue" points="94.4142,-70.5001 104.414,-67 94.4142,-63.5001 94.4142,-70.5001"/>
</g>
<!-- Node13 -->
<g id="node4" class="node"><title>Node13</title>
<g id="a_node4"><a xlink:href="protocol__utils_8h.html#a4b463fcc042e8f1ab593b1c0811d8f74" target="_top" xlink:title="Read and parse a response from the server. ">
<polygon fill="white" stroke="black" points="101,-19.5 101,-38.5 194,-38.5 194,-19.5 101,-19.5"/>
<text text-anchor="middle" x="147.5" y="-26.5" font-family="Helvetica,sans-Serif" font-size="10.00">parse_response</text>
</a>
</g>
</g>
<!-- Node10&#45;&gt;Node13 -->
<g id="edge3" class="edge"><title>Node10&#45;&gt;Node13</title>
<path fill="none" stroke="midnightblue" d="M62.0147,-57.411C76.0666,-52.6856 93.2082,-46.9211 108.37,-41.8226"/>
<polygon fill="midnightblue" stroke="midnightblue" points="109.632,-45.0909 117.994,-38.5859 107.4,-38.456 109.632,-45.0909"/>
</g>
<!-- Node14 -->
<g id="node5" class="node"><title>Node14</title>
<g id="a_node5"><a xlink:href="networking_8h.html#a452c1ce9209a371b08301df0fb35b7aa" target="_top" xlink:title="Read a single char from the server. ">
<polygon fill="white" stroke="black" points="230,-38.5 230,-57.5 340,-57.5 340,-38.5 230,-38.5"/>
<text text-anchor="middle" x="285" y="-45.5" font-family="Helvetica,sans-Serif" font-size="10.00">network_read_char</text>
</a>
</g>
</g>
<!-- Node13&#45;&gt;Node14 -->
<g id="edge4" class="edge"><title>Node13&#45;&gt;Node14</title>
<path fill="none" stroke="midnightblue" d="M194.374,-35.4325C202.541,-36.5777 211.183,-37.7896 219.751,-38.9909"/>
<polygon fill="midnightblue" stroke="midnightblue" points="219.352,-42.4691 229.741,-40.3917 220.324,-35.5369 219.352,-42.4691"/>
</g>
<!-- Node15 -->
<g id="node6" class="node"><title>Node15</title>
<g id="a_node6"><a xlink:href="networking_8h.html#aed9a5ef41373d2bee0c1366e70c088a7" target="_top" xlink:title="Close the TCP connection if it is still active, then de&#45;initialize the used libraries. ">
<polygon fill="white" stroke="black" points="235,-0.5 235,-19.5 335,-19.5 335,-0.5 235,-0.5"/>
<text text-anchor="middle" x="285" y="-7.5" font-family="Helvetica,sans-Serif" font-size="10.00">term_networking</text>
</a>
</g>
</g>
<!-- Node13&#45;&gt;Node15 -->
<g id="edge5" class="edge"><title>Node13&#45;&gt;Node15</title>
<path fill="none" stroke="midnightblue" d="M194.374,-22.5675C204.163,-21.1948 214.635,-19.7265 224.842,-18.2952"/>
<polygon fill="midnightblue" stroke="midnightblue" points="225.509,-21.7361 234.926,-16.8813 224.537,-14.8039 225.509,-21.7361"/>
</g>
</g>
</svg>
