<?xml version="1.0" encoding="UTF-8" standalone="no"?>
<!DOCTYPE svg PUBLIC "-//W3C//DTD SVG 1.1//EN"
 "http://www.w3.org/Graphics/SVG/1.1/DTD/svg11.dtd">
<!-- Generated by graphviz version 2.38.0 (20140413.2041)
 -->
<!-- Title: protocol_utils.h Pages: 1 -->
<svg width="166pt" height="140pt"
 viewBox="0.00 0.00 166.00 140.00" xmlns="http://www.w3.org/2000/svg" xmlns:xlink="http://www.w3.org/1999/xlink">
<g id="graph0" class="graph" transform="scale(1 1) rotate(0) translate(4 136)">
<title>protocol_utils.h</title>
<polygon fill="white" stroke="none" points="-4,4 -4,-136 162,-136 162,4 -4,4"/>
<!-- Node0 -->
<g id="node1" class="node"><title>Node0</title>
<polygon fill="#bfbfbf" stroke="black" points="42.5,-112.5 42.5,-131.5 134.5,-131.5 134.5,-112.5 42.5,-112.5"/>
<text text-anchor="middle" x="88.5" y="-119.5" font-family="Helvetica,sans-Serif" font-size="10.00">protocol_utils.h</text>
</g>
<!-- Node1 -->
<g id="node2" class="node"><title>Node1</title>
<g id="a_node2"><a xlink:href="networking_8h.html" target="_top" xlink:title="This file provides an abstraction layer for the network connection to the morgenlichtd server...">
<polygon fill="white" stroke="black" points="6.5,-56.5 6.5,-75.5 86.5,-75.5 86.5,-56.5 6.5,-56.5"/>
<text text-anchor="middle" x="46.5" y="-63.5" font-family="Helvetica,sans-Serif" font-size="10.00">networking.h</text>
</a>
</g>
</g>
<!-- Node0&#45;&gt;Node1 -->
<g id="edge1" class="edge"><title>Node0&#45;&gt;Node1</title>
<path fill="none" stroke="midnightblue" d="M81.5646,-112.083C75.5708,-104.377 66.7482,-93.0333 59.4524,-83.6531"/>
<polygon fill="midnightblue" stroke="midnightblue" points="62.2086,-81.4958 53.3064,-75.7511 56.6831,-85.7934 62.2086,-81.4958"/>
</g>
<!-- Node3 -->
<g id="node4" class="node"><title>Node3</title>
<polygon fill="white" stroke="#bfbfbf" points="105,-56.5 105,-75.5 158,-75.5 158,-56.5 105,-56.5"/>
<text text-anchor="middle" x="131.5" y="-63.5" font-family="Helvetica,sans-Serif" font-size="10.00">string.h</text>
</g>
<!-- Node0&#45;&gt;Node3 -->
<g id="edge3" class="edge"><title>Node0&#45;&gt;Node3</title>
<path fill="none" stroke="midnightblue" d="M95.6006,-112.083C101.737,-104.377 110.77,-93.0333 118.239,-83.6531"/>
<polygon fill="midnightblue" stroke="midnightblue" points="121.04,-85.7542 124.532,-75.7511 115.564,-81.3936 121.04,-85.7542"/>
</g>
<!-- Node2 -->
<g id="node3" class="node"><title>Node2</title>
<polygon fill="white" stroke="#bfbfbf" points="-7.10543e-15,-0.5 -7.10543e-15,-19.5 93,-19.5 93,-0.5 -7.10543e-15,-0.5"/>
<text text-anchor="middle" x="46.5" y="-7.5" font-family="Helvetica,sans-Serif" font-size="10.00">SDL2/SDL_net.h</text>
</g>
<!-- Node1&#45;&gt;Node2 -->
<g id="edge2" class="edge"><title>Node1&#45;&gt;Node2</title>
<path fill="none" stroke="midnightblue" d="M46.5,-56.083C46.5,-49.0059 46.5,-38.8611 46.5,-29.9865"/>
<polygon fill="midnightblue" stroke="midnightblue" points="50.0001,-29.751 46.5,-19.7511 43.0001,-29.7511 50.0001,-29.751"/>
</g>
</g>
</svg>
